<svg width="822" height="168" viewBox="0 0 822 168" fill="none" xmlns="http://www.w3.org/2000/svg">
<path fill-rule="evenodd" clip-rule="evenodd" d="M76.134 168C88.4689 168 99.6146 158.249 107.584 142.553C127.231 144.598 143.098 139.996 149.76 128.509C156.288 117.253 152.646 101.683 141.581 86.0881C152.361 70.6665 155.851 55.3164 149.395 44.1852C143.015 33.1851 128.195 28.4991 109.697 29.9172C101.651 11.6232 89.6012 0 76.134 0C62.6024 0 50.5019 11.7346 42.4559 30.18C24.3535 28.9678 9.88686 33.6772 3.6047 44.5089C-2.8057 55.5617 0.590737 70.774 11.1922 86.0857C0.30461 101.573 -3.24333 117.007 3.24001 128.185C9.80558 139.506 25.3108 144.139 44.5631 142.314C52.5405 158.15 63.7366 168 76.134 168ZM52.723 141.192C59.5131 154.212 68.6244 162.178 78.6404 162.178C88.3909 162.178 97.6445 154.628 104.759 142.216C95.7498 141.011 86.0249 138.458 76.0813 134.579C68.0559 137.653 60.1825 139.861 52.723 141.192ZM65.066 129.772C59.6365 131.524 54.3493 132.843 49.3044 133.722C47.3604 128.877 45.6948 123.542 44.3578 117.82C47.6743 120.075 51.143 122.249 54.7512 124.322C58.1804 126.293 61.6254 128.11 65.066 129.772ZM76.1153 125.681C82.0554 123.201 88.0811 120.236 94.0712 116.793C102.753 111.803 110.601 106.248 117.406 100.431C118.007 95.1332 118.325 89.6363 118.325 84C118.325 76.7877 117.804 69.8034 116.837 63.1724C111.111 58.5306 104.726 54.1259 97.7783 50.1327C90.5496 45.9781 83.2382 42.5717 76.0688 39.9083C69.1761 42.5221 62.1608 45.8209 55.2217 49.809C50.8567 52.3176 46.714 54.9887 42.8173 57.7789C41.3987 65.9754 40.6264 74.8022 40.6264 84C40.6264 91.6514 41.1608 99.046 42.1572 106.035C47.3013 109.933 52.9148 113.66 58.9288 117.117C64.6605 120.411 70.4247 123.268 76.1153 125.681ZM87.1306 129.834C90.8382 128.069 94.5526 126.123 98.2488 123.999C104.42 120.452 110.183 116.612 115.475 112.577C113.788 120.729 111.414 128.213 108.516 134.761C101.819 133.947 94.6043 132.298 87.1306 129.834ZM117.71 110.839C116.16 119.645 113.869 127.798 110.979 135.025C127.491 136.554 140.523 132.79 145.949 123.434C151.173 114.426 148.569 101.574 140.004 88.2746C134.26 96.0014 126.717 103.697 117.71 110.839ZM136.558 79.6112C145.456 66.5866 148.333 53.995 143.077 44.9322C137.99 36.1605 126.021 31.9659 110.76 32.4296C114.303 41.1419 116.969 51.2264 118.504 62.197C125.46 67.7548 131.53 73.6409 136.558 79.6112ZM108.207 32.5487C111.854 40.6018 114.7 50.1134 116.432 60.5713C110.979 56.37 105.016 52.3749 98.6135 48.6953C91.9605 44.8716 85.2484 41.6273 78.6231 38.9688C89.0583 35.2503 99.1528 33.1155 108.207 32.5487ZM107.079 30.1561C97.4373 31.1742 86.8906 33.7897 76.078 37.9747C67.3015 34.6398 58.7118 32.342 50.652 31.0966C57.5997 15.5588 67.5671 5.82178 78.6404 5.82178C89.4885 5.82178 99.7214 15.1669 107.079 30.1561ZM73.5221 38.9912C65.2343 36.1013 57.1742 34.2138 49.6945 33.3208C46.9942 39.8377 44.805 47.278 43.2545 55.3791C46.7937 52.9437 50.5095 50.5998 54.3865 48.3716C60.7535 44.7123 67.1747 41.5836 73.5221 38.9912ZM33.7221 62.4957C35.2332 51.5364 37.8718 41.4543 41.3859 32.7321C26.5331 32.4484 14.915 36.6486 9.92297 45.2558C4.71482 54.2357 7.49152 66.68 16.1993 79.577C21.0882 73.7301 26.9781 67.96 33.7221 62.4957ZM12.7737 88.2981C18.3786 95.9001 25.7286 103.478 34.5053 110.536C36.0375 119.356 38.3126 127.526 41.1886 134.774C25.0714 136.101 12.386 132.308 7.05132 123.11C1.87209 114.18 4.38588 101.474 12.7737 88.2981ZM17.5655 81.5365C21.902 75.9826 27.2176 70.4453 33.3781 65.1689C32.6541 71.2227 32.2716 77.5258 32.2716 84C32.2716 88.9107 32.4917 93.723 32.9139 98.4027C26.8006 92.8905 21.6275 87.1849 17.5655 81.5365ZM135.191 81.5497C130.996 87.3221 125.646 93.1492 119.321 98.7635C119.765 93.9705 119.996 89.037 119.996 84C119.996 77.4071 119.6 70.9917 118.85 64.8363C125.223 70.211 130.718 75.8692 135.191 81.5497Z" fill="white"/>
<path d="M204.338 45.9711H192.828L190.47 52.2032H185.195L196.065 23.8789H201.46L212.53 52.2032H206.775L204.338 45.9711ZM202.739 41.7364L198.543 30.9899L194.467 41.7364H202.739Z" fill="white"/>
<path d="M235.548 23.8789H246.817C249.588 23.8789 251.893 24.7312 253.731 26.4357C255.57 28.1402 256.489 30.3774 256.489 33.1472C256.489 35.9437 255.57 38.1942 253.731 39.8987C251.893 41.6032 249.588 42.4555 246.817 42.4555H240.943V52.2032H235.548V23.8789ZM240.943 37.262H246.857C248.003 37.262 248.962 36.8759 249.735 36.1035C250.507 35.3045 250.894 34.3191 250.894 33.1472C250.894 31.9754 250.507 31.0033 249.735 30.2309C248.989 29.4585 248.03 29.0723 246.857 29.0723H240.943V37.262Z" fill="white"/>
<path d="M293.67 45.9711H282.161L279.803 52.2032H274.528L285.398 23.8789H290.793L301.863 52.2032H296.108L293.67 45.9711ZM292.072 41.7364L287.876 30.9899L283.799 41.7364H292.072Z" fill="white"/>
<path d="M335.992 23C338.576 23 340.92 23.6791 343.025 25.0374C345.157 26.3691 346.848 28.1801 348.101 30.4706L343.105 32.8676C341.373 29.5651 339.002 27.9138 335.992 27.9138C333.62 27.9138 331.649 28.8992 330.077 30.8701C328.532 32.8143 327.759 35.2113 327.759 38.061C327.759 40.9108 328.532 43.3077 330.077 45.252C331.622 47.1695 333.594 48.1283 335.992 48.1283C337.457 48.1283 338.816 47.7155 340.068 46.8899C341.32 46.0376 342.319 44.9191 343.065 43.5341L347.981 45.8912C346.782 48.1283 345.117 49.8861 342.985 51.1645C340.854 52.4163 338.523 53.0421 335.992 53.0421C331.942 53.0421 328.625 51.6439 326.041 48.8474C323.456 46.0243 322.164 42.4289 322.164 38.061C322.164 33.7198 323.47 30.1244 326.081 27.2746C328.718 24.4249 332.022 23 335.992 23Z" fill="white"/>
<path d="M393.493 52.2032H388.098V40.6178H377.108V52.2032H371.713V23.8789H377.108V35.4243H388.098V23.8789H393.493V52.2032Z" fill="white"/>
<path d="M435.171 29.0723H423.901V35.4643H432.413V40.6578H423.901V47.0098H435.171V52.2032H418.506V23.8789H435.171V29.0723Z" fill="white"/>
<path d="M185 76.1041H207.252C218.633 76.1041 227.585 79.3 234.107 85.692C240.693 92.02 243.986 100.138 243.986 110.045C243.986 119.953 240.693 128.103 234.107 134.494C227.521 140.886 218.537 144.082 207.156 144.082H185V76.1041ZM199.962 90.4859V129.7H206.676C209.554 129.7 212.207 129.381 214.637 128.742C217.131 128.102 219.433 127.08 221.543 125.674C223.717 124.267 225.411 122.254 226.626 119.633C227.841 116.949 228.448 113.753 228.448 110.045C228.448 106.338 227.841 103.174 226.626 100.553C225.411 97.9326 223.717 95.9191 221.543 94.5129C219.433 93.1066 217.163 92.0839 214.733 91.4447C212.303 90.8055 209.618 90.4859 206.676 90.4859H199.962Z" fill="white"/>
<path d="M291.815 130.851H264.959L259.972 144.082H245.393L271.385 76.1041H286.348L312.915 144.082H296.898L291.815 130.851ZM287.403 119.346L278.291 95.7593L269.371 119.346H287.403Z" fill="white"/>
<path d="M362.702 90.4859H342.944V144.082H327.982V90.4859H308.512V76.1041H362.702V90.4859Z" fill="white"/>
<path d="M404.774 130.851H377.919L372.931 144.082H358.352L384.345 76.1041H399.307L425.875 144.082H409.858L404.774 130.851ZM400.362 119.346L391.251 95.7593L382.331 119.346H400.362Z" fill="white"/>
<path d="M474.733 90.4859H448.453V102.95H468.403V117.332H448.453V144.082H433.49V76.1041H474.733V90.4859Z" fill="white"/>
<path d="M541.708 76.1041V118.962C541.644 127.272 538.959 133.855 533.652 138.713C528.408 143.571 521.535 146 513.03 146C504.654 146 497.78 143.571 492.409 138.713C487.038 133.855 484.384 127.272 484.448 118.962V76.1041H499.315V119.058C499.315 122.893 500.594 125.961 503.151 128.262C505.773 130.499 509.066 131.618 513.03 131.618C516.995 131.618 520.256 130.499 522.813 128.262C525.371 125.961 526.682 122.893 526.746 119.058V76.1041H541.708Z" fill="white"/>
<path d="M578.686 73.9947C585.72 73.9947 591.954 75.5927 597.389 78.7887L590.771 91.253C585.976 89.2076 581.436 88.1848 577.152 88.1848C570.949 88.1848 567.848 90.2622 567.848 94.417C567.848 96.4624 569.031 98.1882 571.397 99.5945C573.827 100.937 577.28 102.407 581.756 104.005C586.295 105.539 589.716 106.977 592.018 108.319C598.221 111.899 601.322 117.268 601.322 124.427C601.322 131.139 598.86 136.412 593.936 140.247C589.013 144.082 582.875 146 575.521 146C571.365 146 567.049 145.233 562.573 143.699C558.097 142.165 554.612 140.407 552.119 138.425L560.175 126.441C567.017 130.468 573.219 132.225 578.782 131.714C580.956 131.522 582.747 130.755 584.153 129.413C585.624 128.071 586.232 126.441 585.976 124.523C585.72 122.733 584.217 121.263 581.468 120.113C578.718 118.898 575.138 117.492 570.726 115.894C566.378 114.296 562.829 112.41 560.079 110.237C555.028 106.146 552.502 101.065 552.502 94.9923C552.502 91.9881 553.014 89.2715 554.037 86.8425C555.06 84.4136 556.403 82.4321 558.065 80.898C559.792 79.3 561.806 77.9897 564.108 76.967C566.41 75.8803 568.775 75.1133 571.205 74.6659C573.635 74.2184 576.129 73.9947 578.686 73.9947Z" fill="white"/>
<path d="M626.79 144.082H611.828V76.1041H626.79V144.082Z" fill="white"/>
<path d="M647.041 84.1579C653.882 77.3825 662.482 73.9947 672.841 73.9947C683.199 73.9947 691.735 77.3825 698.449 84.1579C705.227 90.8695 708.616 99.4027 708.616 109.758C708.616 120.113 705.323 128.678 698.737 135.453C692.151 142.165 683.519 145.68 672.841 146C662.482 146 653.882 142.58 647.041 135.741C640.263 128.838 636.874 120.208 636.874 109.854C636.874 99.4985 640.263 90.9334 647.041 84.1579ZM672.841 87.6096C666.638 87.6096 661.683 89.6869 657.975 93.8417C654.266 97.9965 652.412 103.302 652.412 109.758C652.412 116.213 654.266 121.615 657.975 125.961C661.747 130.244 666.702 132.385 672.841 132.385C679.043 132.385 683.966 130.244 687.611 125.961C691.256 121.679 693.078 116.309 693.078 109.854C693.078 103.398 691.256 98.1243 687.611 94.0335C684.03 89.8787 679.107 87.7374 672.841 87.6096Z" fill="white"/>
<path d="M774.999 144.082H759.653L732.702 101.991V144.082H718.699V76.1041H732.99L760.996 118.579V76.1041H774.999V144.082Z" fill="white"/>
<path d="M788.008 80.736H784.616V90H782.456V80.736H779.128V78.656H788.008V80.736ZM800.557 90H798.477V82.72L795.501 88.336H794.125L791.149 82.72L791.133 90H789.117V78.656H791.149L794.893 85.584L798.477 78.656H800.541L800.557 90Z" fill="white"/>
</svg>
