<?xml version="1.0" encoding="UTF-8" standalone="no"?>
<!DOCTYPE svg PUBLIC "-//W3C//DTD SVG 1.1//EN"
 "http://www.w3.org/Graphics/SVG/1.1/DTD/svg11.dtd">
<!-- Generated by graphviz version 12.2.1 (20241206.2353)
 -->
<!-- Pages: 1 -->
<svg width="1233pt" height="1412pt"
 viewBox="0.00 0.00 1232.50 1412.00" xmlns="http://www.w3.org/2000/svg" xmlns:xlink="http://www.w3.org/1999/xlink">
<g id="graph0" class="graph" transform="scale(1 1) rotate(0) translate(4 1408)">
<polygon fill="white" stroke="none" points="-4,4 -4,-1408 1228.5,-1408 1228.5,4 -4,4"/>
<!-- 0 -->
<g id="node1" class="node">
<title>0</title>
<polygon fill="none" stroke="black" points="988,-36 862.5,-36 862.5,0 988,0 988,-36"/>
<text text-anchor="middle" x="925.25" y="-12.95" font-family="Times,serif" font-size="14.00">datafusion&#45;common</text>
</g>
<!-- 1 -->
<g id="node2" class="node">
<title>1</title>
<polygon fill="none" stroke="black" points="731.62,-612 558.88,-612 558.88,-576 731.62,-576 731.62,-612"/>
<text text-anchor="middle" x="645.25" y="-588.95" font-family="Times,serif" font-size="14.00">datafusion&#45;common&#45;runtime</text>
</g>
<!-- 2 -->
<g id="node3" class="node">
<title>2</title>
<polygon fill="none" stroke="black" points="678.12,-972 562.38,-972 562.38,-936 678.12,-936 678.12,-972"/>
<text text-anchor="middle" x="620.25" y="-948.95" font-family="Times,serif" font-size="14.00">datafusion&#45;catalog</text>
</g>
<!-- 3 -->
<g id="node4" class="node">
<title>3</title>
<polygon fill="none" stroke="black" points="598.5,-828 464,-828 464,-792 598.5,-792 598.5,-828"/>
<text text-anchor="middle" x="531.25" y="-804.95" font-family="Times,serif" font-size="14.00">datafusion&#45;datasource</text>
</g>
<!-- 2&#45;&gt;3 -->
<g id="edge1" class="edge">
<title>2&#45;&gt;3</title>
<path fill="none" stroke="black" d="M625.34,-935.65C629.83,-916.71 633.9,-886.14 621.25,-864 614.01,-851.33 602.42,-841.39 589.94,-833.71"/>
<polygon fill="black" stroke="black" points="592.03,-830.87 581.6,-829.02 588.6,-836.97 592.03,-830.87"/>
</g>
<!-- 14 -->
<g id="node15" class="node">
<title>14</title>
<polygon fill="none" stroke="black" points="628.5,-756 434,-756 434,-720 628.5,-720 628.5,-756"/>
<text text-anchor="middle" x="531.25" y="-732.95" font-family="Times,serif" font-size="14.00">datafusion&#45;physical&#45;expr&#45;adapter</text>
</g>
<!-- 3&#45;&gt;14 -->
<g id="edge2" class="edge">
<title>3&#45;&gt;14</title>
<path fill="none" stroke="black" d="M531.25,-791.7C531.25,-784.41 531.25,-775.73 531.25,-767.54"/>
<polygon fill="black" stroke="black" points="534.75,-767.62 531.25,-757.62 527.75,-767.62 534.75,-767.62"/>
</g>
<!-- 18 -->
<g id="node19" class="node">
<title>18</title>
<polygon fill="none" stroke="black" points="797.12,-756 681.38,-756 681.38,-720 797.12,-720 797.12,-756"/>
<text text-anchor="middle" x="739.25" y="-732.95" font-family="Times,serif" font-size="14.00">datafusion&#45;session</text>
</g>
<!-- 3&#45;&gt;18 -->
<g id="edge3" class="edge">
<title>3&#45;&gt;18</title>
<path fill="none" stroke="black" d="M583.2,-791.52C611.6,-781.96 646.98,-770.05 676.86,-760"/>
<polygon fill="black" stroke="black" points="677.81,-763.37 686.17,-756.86 675.57,-756.74 677.81,-763.37"/>
</g>
<!-- 4 -->
<g id="node5" class="node">
<title>4</title>
<polygon fill="none" stroke="black" points="864.88,-396 735.62,-396 735.62,-360 864.88,-360 864.88,-396"/>
<text text-anchor="middle" x="800.25" y="-372.95" font-family="Times,serif" font-size="14.00">datafusion&#45;execution</text>
</g>
<!-- 5 -->
<g id="node6" class="node">
<title>5</title>
<polygon fill="none" stroke="black" points="850.62,-324 749.88,-324 749.88,-288 850.62,-288 850.62,-324"/>
<text text-anchor="middle" x="800.25" y="-300.95" font-family="Times,serif" font-size="14.00">datafusion&#45;expr</text>
</g>
<!-- 4&#45;&gt;5 -->
<g id="edge4" class="edge">
<title>4&#45;&gt;5</title>
<path fill="none" stroke="black" d="M800.25,-359.7C800.25,-352.41 800.25,-343.73 800.25,-335.54"/>
<polygon fill="black" stroke="black" points="803.75,-335.62 800.25,-325.62 796.75,-335.62 803.75,-335.62"/>
</g>
<!-- 6 -->
<g id="node7" class="node">
<title>6</title>
<polygon fill="none" stroke="black" points="663.38,-252 567.12,-252 567.12,-216 663.38,-216 663.38,-252"/>
<text text-anchor="middle" x="615.25" y="-228.95" font-family="Times,serif" font-size="14.00">datafusion&#45;doc</text>
</g>
<!-- 5&#45;&gt;6 -->
<g id="edge5" class="edge">
<title>5&#45;&gt;6</title>
<path fill="none" stroke="black" d="M754.04,-287.52C729.12,-278.08 698.15,-266.37 671.79,-256.39"/>
<polygon fill="black" stroke="black" points="673.19,-253.18 662.6,-252.92 670.72,-259.73 673.19,-253.18"/>
</g>
<!-- 8 -->
<g id="node9" class="node">
<title>8</title>
<polygon fill="none" stroke="black" points="918.88,-252 681.62,-252 681.62,-216 918.88,-216 918.88,-252"/>
<text text-anchor="middle" x="800.25" y="-228.95" font-family="Times,serif" font-size="14.00">datafusion&#45;functions&#45;aggregate&#45;common</text>
</g>
<!-- 5&#45;&gt;8 -->
<g id="edge6" class="edge">
<title>5&#45;&gt;8</title>
<path fill="none" stroke="black" d="M800.25,-287.7C800.25,-280.41 800.25,-271.73 800.25,-263.54"/>
<polygon fill="black" stroke="black" points="803.75,-263.62 800.25,-253.62 796.75,-263.62 803.75,-263.62"/>
</g>
<!-- 10 -->
<g id="node11" class="node">
<title>10</title>
<polygon fill="none" stroke="black" points="1165.38,-252 937.12,-252 937.12,-216 1165.38,-216 1165.38,-252"/>
<text text-anchor="middle" x="1051.25" y="-228.95" font-family="Times,serif" font-size="14.00">datafusion&#45;functions&#45;window&#45;common</text>
</g>
<!-- 5&#45;&gt;10 -->
<g id="edge7" class="edge">
<title>5&#45;&gt;10</title>
<path fill="none" stroke="black" d="M851.04,-290.83C887.39,-280.7 936.88,-266.9 977.56,-255.55"/>
<polygon fill="black" stroke="black" points="978.36,-258.96 987.06,-252.9 976.48,-252.22 978.36,-258.96"/>
</g>
<!-- 7 -->
<g id="node8" class="node">
<title>7</title>
<polygon fill="none" stroke="black" points="1002.25,-108 848.25,-108 848.25,-72 1002.25,-72 1002.25,-108"/>
<text text-anchor="middle" x="925.25" y="-84.95" font-family="Times,serif" font-size="14.00">datafusion&#45;expr&#45;common</text>
</g>
<!-- 7&#45;&gt;0 -->
<g id="edge8" class="edge">
<title>7&#45;&gt;0</title>
<path fill="none" stroke="black" d="M925.25,-71.7C925.25,-64.41 925.25,-55.73 925.25,-47.54"/>
<polygon fill="black" stroke="black" points="928.75,-47.62 925.25,-37.62 921.75,-47.62 928.75,-47.62"/>
</g>
<!-- 9 -->
<g id="node10" class="node">
<title>9</title>
<polygon fill="none" stroke="black" points="1027,-180 823.5,-180 823.5,-144 1027,-144 1027,-180"/>
<text text-anchor="middle" x="925.25" y="-156.95" font-family="Times,serif" font-size="14.00">datafusion&#45;physical&#45;expr&#45;common</text>
</g>
<!-- 8&#45;&gt;9 -->
<g id="edge9" class="edge">
<title>8&#45;&gt;9</title>
<path fill="none" stroke="black" d="M831.47,-215.52C847.55,-206.51 867.35,-195.42 884.61,-185.76"/>
<polygon fill="black" stroke="black" points="886.09,-188.94 893.11,-181 882.67,-182.83 886.09,-188.94"/>
</g>
<!-- 9&#45;&gt;7 -->
<g id="edge10" class="edge">
<title>9&#45;&gt;7</title>
<path fill="none" stroke="black" d="M925.25,-143.7C925.25,-136.41 925.25,-127.73 925.25,-119.54"/>
<polygon fill="black" stroke="black" points="928.75,-119.62 925.25,-109.62 921.75,-119.62 928.75,-119.62"/>
</g>
<!-- 10&#45;&gt;9 -->
<g id="edge11" class="edge">
<title>10&#45;&gt;9</title>
<path fill="none" stroke="black" d="M1019.78,-215.52C1003.57,-206.51 983.61,-195.42 966.22,-185.76"/>
<polygon fill="black" stroke="black" points="968.08,-182.79 957.64,-181 964.68,-188.91 968.08,-182.79"/>
</g>
<!-- 11 -->
<g id="node12" class="node">
<title>11</title>
<polygon fill="none" stroke="black" points="896.38,-540 746.12,-540 746.12,-504 896.38,-504 896.38,-540"/>
<text text-anchor="middle" x="821.25" y="-516.95" font-family="Times,serif" font-size="14.00">datafusion&#45;physical&#45;expr</text>
</g>
<!-- 12 -->
<g id="node13" class="node">
<title>12</title>
<polygon fill="none" stroke="black" points="863.75,-468 736.75,-468 736.75,-432 863.75,-432 863.75,-468"/>
<text text-anchor="middle" x="800.25" y="-444.95" font-family="Times,serif" font-size="14.00">datafusion&#45;functions</text>
</g>
<!-- 11&#45;&gt;12 -->
<g id="edge12" class="edge">
<title>11&#45;&gt;12</title>
<path fill="none" stroke="blue" d="M816.06,-503.7C813.82,-496.24 811.15,-487.32 808.64,-478.97"/>
<polygon fill="blue" stroke="blue" points="812.04,-478.13 805.82,-469.55 805.34,-480.14 812.04,-478.13"/>
</g>
<!-- 12&#45;&gt;4 -->
<g id="edge13" class="edge">
<title>12&#45;&gt;4</title>
<path fill="none" stroke="black" d="M800.25,-431.7C800.25,-424.41 800.25,-415.73 800.25,-407.54"/>
<polygon fill="black" stroke="black" points="803.75,-407.62 800.25,-397.62 796.75,-407.62 803.75,-407.62"/>
</g>
<!-- 13 -->
<g id="node14" class="node">
<title>13</title>
<polygon fill="none" stroke="#00cd00" points="702.5,-324 586,-324 586,-288 702.5,-288 702.5,-324"/>
<text text-anchor="middle" x="644.25" y="-300.95" font-family="Times,serif" font-size="14.00">datafusion&#45;macros</text>
</g>
<!-- 12&#45;&gt;13 -->
<g id="edge14" class="edge">
<title>12&#45;&gt;13</title>
<path fill="none" stroke="#00cd00" d="M773.23,-431.61C758.75,-421.82 740.93,-408.98 726.25,-396 704.17,-376.48 681.66,-351.62 665.83,-333.14"/>
<polygon fill="#00cd00" stroke="#00cd00" points="668.52,-330.91 659.39,-325.53 663.18,-335.43 668.52,-330.91"/>
</g>
<!-- 13&#45;&gt;6 -->
<g id="edge15" class="edge">
<title>13&#45;&gt;6</title>
<path fill="none" stroke="#00cd00" d="M637.08,-287.7C633.96,-280.15 630.21,-271.12 626.72,-262.68"/>
<polygon fill="#00cd00" stroke="#00cd00" points="629.98,-261.4 622.92,-253.5 623.51,-264.08 629.98,-261.4"/>
</g>
<!-- 14&#45;&gt;11 -->
<g id="edge16" class="edge">
<title>14&#45;&gt;11</title>
<path fill="none" stroke="black" d="M527.38,-719.53C521.23,-686.75 513.42,-615.73 550.25,-576 574.87,-549.44 664.83,-535.77 734.42,-529.03"/>
<polygon fill="black" stroke="black" points="734.7,-532.52 744.33,-528.1 734.05,-525.55 734.7,-532.52"/>
</g>
<!-- 15 -->
<g id="node16" class="node">
<title>15</title>
<polygon fill="none" stroke="black" points="823,-684 673.5,-684 673.5,-648 823,-648 823,-684"/>
<text text-anchor="middle" x="748.25" y="-660.95" font-family="Times,serif" font-size="14.00">datafusion&#45;physical&#45;plan</text>
</g>
<!-- 15&#45;&gt;1 -->
<g id="edge17" class="edge">
<title>15&#45;&gt;1</title>
<path fill="none" stroke="black" d="M722.52,-647.52C709.65,-638.76 693.87,-628.04 679.94,-618.58"/>
<polygon fill="black" stroke="black" points="682.14,-615.84 671.9,-613.11 678.2,-621.63 682.14,-615.84"/>
</g>
<!-- 16 -->
<g id="node17" class="node">
<title>16</title>
<polygon fill="none" stroke="black" points="933.25,-612 749.25,-612 749.25,-576 933.25,-576 933.25,-612"/>
<text text-anchor="middle" x="841.25" y="-588.95" font-family="Times,serif" font-size="14.00">datafusion&#45;functions&#45;aggregate</text>
</g>
<!-- 15&#45;&gt;16 -->
<g id="edge18" class="edge">
<title>15&#45;&gt;16</title>
<path fill="none" stroke="blue" d="M771.24,-647.7C782.64,-639.11 796.6,-628.61 809.05,-619.24"/>
<polygon fill="blue" stroke="blue" points="811.11,-622.07 816.99,-613.26 806.9,-616.47 811.11,-622.07"/>
</g>
<!-- 17 -->
<g id="node18" class="node">
<title>17</title>
<polygon fill="none" stroke="black" points="1126.75,-612 951.75,-612 951.75,-576 1126.75,-576 1126.75,-612"/>
<text text-anchor="middle" x="1039.25" y="-588.95" font-family="Times,serif" font-size="14.00">datafusion&#45;functions&#45;window</text>
</g>
<!-- 15&#45;&gt;17 -->
<g id="edge19" class="edge">
<title>15&#45;&gt;17</title>
<path fill="none" stroke="blue" d="M820.93,-647.52C861.81,-637.68 913.01,-625.37 955.55,-615.13"/>
<polygon fill="blue" stroke="blue" points="956.36,-618.54 965.27,-612.8 954.73,-611.73 956.36,-618.54"/>
</g>
<!-- 16&#45;&gt;11 -->
<g id="edge20" class="edge">
<title>16&#45;&gt;11</title>
<path fill="none" stroke="black" d="M836.31,-575.7C834.17,-568.24 831.63,-559.32 829.24,-550.97"/>
<polygon fill="black" stroke="black" points="832.67,-550.21 826.55,-541.56 825.93,-552.14 832.67,-550.21"/>
</g>
<!-- 17&#45;&gt;11 -->
<g id="edge21" class="edge">
<title>17&#45;&gt;11</title>
<path fill="none" stroke="black" d="M984.8,-575.52C954.91,-565.92 917.63,-553.95 886.23,-543.86"/>
<polygon fill="black" stroke="black" points="887.41,-540.57 876.82,-540.84 885.27,-547.23 887.41,-540.57"/>
</g>
<!-- 18&#45;&gt;15 -->
<g id="edge22" class="edge">
<title>18&#45;&gt;15</title>
<path fill="none" stroke="black" d="M741.47,-719.7C742.42,-712.32 743.55,-703.52 744.62,-695.25"/>
<polygon fill="black" stroke="black" points="748.05,-695.97 745.86,-685.61 741.11,-695.08 748.05,-695.97"/>
</g>
<!-- 19 -->
<g id="node20" class="node">
<title>19</title>
<polygon fill="none" stroke="black" points="697.25,-1044 543.25,-1044 543.25,-1008 697.25,-1008 697.25,-1044"/>
<text text-anchor="middle" x="620.25" y="-1020.95" font-family="Times,serif" font-size="14.00">datafusion&#45;catalog&#45;listing</text>
</g>
<!-- 19&#45;&gt;2 -->
<g id="edge23" class="edge">
<title>19&#45;&gt;2</title>
<path fill="none" stroke="black" d="M620.25,-1007.7C620.25,-1000.41 620.25,-991.73 620.25,-983.54"/>
<polygon fill="black" stroke="black" points="623.75,-983.62 620.25,-973.62 616.75,-983.62 623.75,-983.62"/>
</g>
<!-- 20 -->
<g id="node21" class="node">
<title>20</title>
<polygon fill="none" stroke="black" points="876,-972 696.5,-972 696.5,-936 876,-936 876,-972"/>
<text text-anchor="middle" x="786.25" y="-948.95" font-family="Times,serif" font-size="14.00">datafusion&#45;datasource&#45;parquet</text>
</g>
<!-- 19&#45;&gt;20 -->
<g id="edge24" class="edge">
<title>19&#45;&gt;20</title>
<path fill="none" stroke="blue" d="M661.71,-1007.52C683.78,-998.21 711.13,-986.68 734.57,-976.79"/>
<polygon fill="blue" stroke="blue" points="735.78,-980.08 743.64,-972.97 733.06,-973.63 735.78,-980.08"/>
</g>
<!-- 21 -->
<g id="node22" class="node">
<title>21</title>
<polygon fill="none" stroke="black" points="908.62,-900 789.88,-900 789.88,-864 908.62,-864 908.62,-900"/>
<text text-anchor="middle" x="849.25" y="-876.95" font-family="Times,serif" font-size="14.00">datafusion&#45;pruning</text>
</g>
<!-- 20&#45;&gt;21 -->
<g id="edge25" class="edge">
<title>20&#45;&gt;21</title>
<path fill="none" stroke="black" d="M801.82,-935.7C809.22,-927.47 818.22,-917.48 826.37,-908.42"/>
<polygon fill="black" stroke="black" points="828.76,-911 832.84,-901.23 823.55,-906.32 828.76,-911"/>
</g>
<!-- 21&#45;&gt;3 -->
<g id="edge26" class="edge">
<title>21&#45;&gt;3</title>
<path fill="none" stroke="black" d="M789.44,-867.83C738.69,-856.66 665.49,-840.55 609.99,-828.33"/>
<polygon fill="black" stroke="black" points="610.78,-824.92 600.26,-826.19 609.27,-831.76 610.78,-824.92"/>
</g>
<!-- 22 -->
<g id="node23" class="node">
<title>22</title>
<polygon fill="none" stroke="black" points="966.25,-828 800.25,-828 800.25,-792 966.25,-792 966.25,-828"/>
<text text-anchor="middle" x="883.25" y="-804.95" font-family="Times,serif" font-size="14.00">datafusion&#45;functions&#45;nested</text>
</g>
<!-- 21&#45;&gt;22 -->
<g id="edge27" class="edge">
<title>21&#45;&gt;22</title>
<path fill="none" stroke="blue" d="M857.65,-863.7C861.36,-856.07 865.81,-846.92 869.94,-838.4"/>
<polygon fill="blue" stroke="blue" points="873.06,-839.99 874.28,-829.47 866.76,-836.93 873.06,-839.99"/>
</g>
<!-- 22&#45;&gt;16 -->
<g id="edge28" class="edge">
<title>22&#45;&gt;16</title>
<path fill="none" stroke="black" d="M879.88,-791.85C872.66,-755.07 855.63,-668.29 846.79,-623.24"/>
<polygon fill="black" stroke="black" points="850.28,-622.86 844.92,-613.72 843.42,-624.2 850.28,-622.86"/>
</g>
<!-- 23 -->
<g id="node24" class="node">
<title>23</title>
<polygon fill="none" stroke="black" points="506.5,-972 336,-972 336,-936 506.5,-936 506.5,-972"/>
<text text-anchor="middle" x="421.25" y="-948.95" font-family="Times,serif" font-size="14.00">datafusion&#45;datasource&#45;arrow</text>
</g>
<!-- 23&#45;&gt;3 -->
<g id="edge29" class="edge">
<title>23&#45;&gt;3</title>
<path fill="none" stroke="black" d="M420.94,-935.61C421.44,-916.36 424.86,-885.24 440.25,-864 449.31,-851.49 462.3,-841.46 475.65,-833.65"/>
<polygon fill="black" stroke="black" points="476.94,-836.93 484.04,-829.06 473.59,-830.78 476.94,-836.93"/>
</g>
<!-- 24 -->
<g id="node25" class="node">
<title>24</title>
<polygon fill="none" stroke="black" points="612.75,-900 449.75,-900 449.75,-864 612.75,-864 612.75,-900"/>
<text text-anchor="middle" x="531.25" y="-876.95" font-family="Times,serif" font-size="14.00">datafusion&#45;datasource&#45;avro</text>
</g>
<!-- 24&#45;&gt;3 -->
<g id="edge30" class="edge">
<title>24&#45;&gt;3</title>
<path fill="none" stroke="black" d="M531.25,-863.7C531.25,-856.41 531.25,-847.73 531.25,-839.54"/>
<polygon fill="black" stroke="black" points="534.75,-839.62 531.25,-829.62 527.75,-839.62 534.75,-839.62"/>
</g>
<!-- 25 -->
<g id="node26" class="node">
<title>25</title>
<polygon fill="none" stroke="black" points="279.75,-972 122.75,-972 122.75,-936 279.75,-936 279.75,-972"/>
<text text-anchor="middle" x="201.25" y="-948.95" font-family="Times,serif" font-size="14.00">datafusion&#45;datasource&#45;csv</text>
</g>
<!-- 25&#45;&gt;3 -->
<g id="edge31" class="edge">
<title>25&#45;&gt;3</title>
<path fill="none" stroke="black" d="M199.89,-935.54C199.34,-915.31 201.84,-882.43 221.25,-864 253.72,-833.16 371.86,-820.08 452.55,-814.67"/>
<polygon fill="black" stroke="black" points="452.41,-818.18 462.16,-814.05 451.96,-811.2 452.41,-818.18"/>
</g>
<!-- 26 -->
<g id="node27" class="node">
<title>26</title>
<polygon fill="none" stroke="black" points="392,-900 230.5,-900 230.5,-864 392,-864 392,-900"/>
<text text-anchor="middle" x="311.25" y="-876.95" font-family="Times,serif" font-size="14.00">datafusion&#45;datasource&#45;json</text>
</g>
<!-- 26&#45;&gt;3 -->
<g id="edge32" class="edge">
<title>26&#45;&gt;3</title>
<path fill="none" stroke="black" d="M366.2,-863.52C396.37,-853.92 433.98,-841.95 465.68,-831.86"/>
<polygon fill="black" stroke="black" points="466.71,-835.21 475.18,-828.84 464.59,-828.54 466.71,-835.21"/>
</g>
<!-- 27 -->
<g id="node28" class="node">
<title>27</title>
<polygon fill="none" stroke="black" points="675.38,-1116 603.12,-1116 603.12,-1080 675.38,-1080 675.38,-1116"/>
<text text-anchor="middle" x="639.25" y="-1092.95" font-family="Times,serif" font-size="14.00">datafusion</text>
</g>
<!-- 27&#45;&gt;19 -->
<g id="edge33" class="edge">
<title>27&#45;&gt;19</title>
<path fill="none" stroke="black" d="M634.55,-1079.7C632.53,-1072.24 630.11,-1063.32 627.84,-1054.97"/>
<polygon fill="black" stroke="black" points="631.29,-1054.3 625.29,-1045.57 624.53,-1056.13 631.29,-1054.3"/>
</g>
<!-- 27&#45;&gt;23 -->
<g id="edge34" class="edge">
<title>27&#45;&gt;23</title>
<path fill="none" stroke="black" d="M339.25,-1025C329.09,-1005.88 344.86,-989.74 365.19,-977.8"/>
<polygon fill="black" stroke="black" points="366.64,-981 373.78,-973.17 363.32,-974.84 366.64,-981"/>
</g>
<!-- 27&#45;&gt;24 -->
<g id="edge35" class="edge">
<title>27&#45;&gt;24</title>
<path fill="none" stroke="black" stroke-dasharray="1,5" d="M339.25,-1025C333.93,-1014.99 348.19,-1013.21 358.25,-1008 421.83,-975.09 465.85,-1023.81 515.25,-972 530.41,-956.1 533.78,-930.98 533.71,-911.48"/>
<polygon fill="black" stroke="black" points="537.22,-911.58 533.36,-901.71 530.22,-911.83 537.22,-911.58"/>
</g>
<!-- 27&#45;&gt;25 -->
<g id="edge36" class="edge">
<title>27&#45;&gt;25</title>
<path fill="none" stroke="black" d="M602.73,-1094.97C528.29,-1089.9 363.96,-1073.52 339.25,-1027"/>
<path fill="none" stroke="black" d="M339.25,-1025C327.45,-1002.78 305.81,-987.45 283.12,-976.94"/>
<polygon fill="black" stroke="black" points="284.6,-973.77 274.04,-973.04 281.84,-980.2 284.6,-973.77"/>
</g>
<!-- 27&#45;&gt;26 -->
<g id="edge37" class="edge">
<title>27&#45;&gt;26</title>
<path fill="none" stroke="black" d="M339.25,-1025C319.48,-989.24 313.53,-941.62 311.82,-911.64"/>
<polygon fill="black" stroke="black" points="315.32,-911.67 311.39,-901.83 308.33,-911.98 315.32,-911.67"/>
</g>
<!-- 28 -->
<g id="node29" class="node">
<title>28</title>
<polygon fill="none" stroke="black" points="525.12,-1044 367.38,-1044 367.38,-1008 525.12,-1008 525.12,-1044"/>
<text text-anchor="middle" x="446.25" y="-1020.95" font-family="Times,serif" font-size="14.00">datafusion&#45;functions&#45;table</text>
</g>
<!-- 27&#45;&gt;28 -->
<g id="edge38" class="edge">
<title>27&#45;&gt;28</title>
<path fill="none" stroke="black" d="M602.95,-1083.83C575.38,-1073.84 536.9,-1059.88 504.97,-1048.3"/>
<polygon fill="black" stroke="black" points="506.44,-1045.11 495.84,-1044.99 504.05,-1051.69 506.44,-1045.11"/>
</g>
<!-- 29 -->
<g id="node30" class="node">
<title>29</title>
<polygon fill="none" stroke="black" points="1164.88,-1044 1035.62,-1044 1035.62,-1008 1164.88,-1008 1164.88,-1044"/>
<text text-anchor="middle" x="1100.25" y="-1020.95" font-family="Times,serif" font-size="14.00">datafusion&#45;optimizer</text>
</g>
<!-- 27&#45;&gt;29 -->
<g id="edge39" class="edge">
<title>27&#45;&gt;29</title>
<path fill="none" stroke="black" d="M675.7,-1093.11C742.64,-1085.74 889.83,-1068.41 1024.06,-1044.31"/>
<polygon fill="black" stroke="black" points="1024.64,-1047.76 1033.86,-1042.53 1023.39,-1040.87 1024.64,-1047.76"/>
</g>
<!-- 31 -->
<g id="node32" class="node">
<title>31</title>
<polygon fill="none" stroke="black" points="893.62,-1044 714.88,-1044 714.88,-1008 893.62,-1008 893.62,-1044"/>
<text text-anchor="middle" x="804.25" y="-1020.95" font-family="Times,serif" font-size="14.00">datafusion&#45;physical&#45;optimizer</text>
</g>
<!-- 27&#45;&gt;31 -->
<g id="edge40" class="edge">
<title>27&#45;&gt;31</title>
<path fill="none" stroke="black" d="M675.87,-1081.46C698.47,-1071.88 727.79,-1059.44 752.71,-1048.86"/>
<polygon fill="black" stroke="black" points="753.86,-1052.18 761.7,-1045.05 751.13,-1045.74 753.86,-1052.18"/>
</g>
<!-- 32 -->
<g id="node33" class="node">
<title>32</title>
<polygon fill="none" stroke="black" points="1224.5,-540 1162,-540 1162,-504 1224.5,-504 1224.5,-540"/>
<text text-anchor="middle" x="1193.25" y="-516.95" font-family="Times,serif" font-size="14.00">test&#45;utils</text>
</g>
<!-- 27&#45;&gt;32 -->
<g id="edge42" class="edge">
<title>27&#45;&gt;32</title>
<path fill="none" stroke="blue" d="M675.52,-1095.85C789.81,-1091.89 1137.11,-1077.21 1174.25,-1044 1204.4,-1017.04 1193.25,-995.45 1193.25,-955 1193.25,-955 1193.25,-955 1193.25,-665 1193.25,-625.74 1193.25,-580.38 1193.25,-551.69"/>
<polygon fill="blue" stroke="blue" points="1196.75,-552 1193.25,-542 1189.75,-552 1196.75,-552"/>
</g>
<!-- 28&#45;&gt;2 -->
<g id="edge43" class="edge">
<title>28&#45;&gt;2</title>
<path fill="none" stroke="black" d="M489.71,-1007.52C512.94,-998.17 541.76,-986.57 566.41,-976.66"/>
<polygon fill="black" stroke="black" points="567.67,-979.93 575.64,-972.95 565.06,-973.43 567.67,-979.93"/>
</g>
<!-- 30 -->
<g id="node31" class="node">
<title>30</title>
<polygon fill="none" stroke="black" points="1085.5,-900 993,-900 993,-864 1085.5,-864 1085.5,-900"/>
<text text-anchor="middle" x="1039.25" y="-876.95" font-family="Times,serif" font-size="14.00">datafusion&#45;sql</text>
</g>
<!-- 29&#45;&gt;30 -->
<g id="edge44" class="edge">
<title>29&#45;&gt;30</title>
<path fill="none" stroke="blue" d="M1092.77,-1007.59C1082.38,-983.4 1063.46,-939.36 1051.13,-910.65"/>
<polygon fill="blue" stroke="blue" points="1054.36,-909.31 1047.2,-901.5 1047.93,-912.07 1054.36,-909.31"/>
</g>
<!-- 30&#45;&gt;17 -->
<g id="edge46" class="edge">
<title>30&#45;&gt;17</title>
<path fill="none" stroke="blue" d="M1039.25,-863.54C1039.25,-815.76 1039.25,-682.51 1039.25,-623.61"/>
<polygon fill="blue" stroke="blue" points="1042.75,-623.75 1039.25,-613.75 1035.75,-623.75 1042.75,-623.75"/>
</g>
<!-- 30&#45;&gt;22 -->
<g id="edge45" class="edge">
<title>30&#45;&gt;22</title>
<path fill="none" stroke="blue" d="M1000.29,-863.52C979.73,-854.29 954.31,-842.89 932.42,-833.06"/>
<polygon fill="blue" stroke="blue" points="933.92,-829.9 923.37,-829 931.06,-836.29 933.92,-829.9"/>
</g>
<!-- 31&#45;&gt;21 -->
<g id="edge47" class="edge">
<title>31&#45;&gt;21</title>
<path fill="none" stroke="black" d="M846.79,-1007.64C861.72,-999.23 876.86,-987.52 885.25,-972 896.25,-951.65 884.74,-927.2 871.89,-909.08"/>
<polygon fill="black" stroke="black" points="874.92,-907.29 866.08,-901.45 869.35,-911.52 874.92,-907.29"/>
</g>
<!-- 32&#45;&gt;0 -->
<g id="edge48" class="edge">
<title>32&#45;&gt;0</title>
<path fill="none" stroke="black" d="M1193.25,-503.51C1193.25,-476.71 1193.25,-423.87 1193.25,-379 1193.25,-379 1193.25,-379 1193.25,-161 1193.25,-72.87 1078.69,-39.28 999.37,-26.58"/>
<polygon fill="black" stroke="black" points="1000.33,-23.19 989.92,-25.15 999.28,-30.11 1000.33,-23.19"/>
</g>
<!-- 33 -->
<g id="node34" class="node">
<title>33</title>
<polygon fill="none" stroke="black" points="397,-1260 307.5,-1260 307.5,-1224 397,-1224 397,-1260"/>
<text text-anchor="middle" x="352.25" y="-1236.95" font-family="Times,serif" font-size="14.00">datafusion&#45;ffi</text>
</g>
<!-- 34 -->
<g id="node35" class="node">
<title>34</title>
<polygon fill="none" stroke="black" points="270.88,-1188 165.62,-1188 165.62,-1152 270.88,-1152 270.88,-1188"/>
<text text-anchor="middle" x="218.25" y="-1164.95" font-family="Times,serif" font-size="14.00">datafusion&#45;proto</text>
</g>
<!-- 33&#45;&gt;34 -->
<g id="edge49" class="edge">
<title>33&#45;&gt;34</title>
<path fill="none" stroke="black" d="M318.78,-1223.52C301.38,-1214.43 279.92,-1203.22 261.3,-1193.49"/>
<polygon fill="black" stroke="black" points="263.12,-1190.49 252.63,-1188.96 259.88,-1196.69 263.12,-1190.49"/>
</g>
<!-- 34&#45;&gt;27 -->
<g id="edge50" class="edge">
<title>34&#45;&gt;27</title>
<path fill="none" stroke="blue" d="M271.14,-1160.21C353.87,-1146.45 512.57,-1120.06 591.81,-1106.89"/>
<polygon fill="blue" stroke="blue" points="592.12,-1110.38 601.41,-1105.29 590.97,-1103.48 592.12,-1110.38"/>
</g>
<!-- 35 -->
<g id="node36" class="node">
<title>35</title>
<polygon fill="none" stroke="black" points="338.5,-684 180,-684 180,-648 338.5,-648 338.5,-684"/>
<text text-anchor="middle" x="259.25" y="-660.95" font-family="Times,serif" font-size="14.00">datafusion&#45;proto&#45;common</text>
</g>
<!-- 34&#45;&gt;35 -->
<g id="edge51" class="edge">
<title>34&#45;&gt;35</title>
<path fill="none" stroke="black" d="M187.28,-1151.55C150.55,-1128.3 94.25,-1083.46 94.25,-1027 94.25,-1027 94.25,-1027 94.25,-809 94.25,-750.9 153.74,-711.38 201.28,-689.07"/>
<polygon fill="black" stroke="black" points="202.48,-692.37 210.15,-685.06 199.59,-685.99 202.48,-692.37"/>
</g>
<!-- 35&#45;&gt;0 -->
<g id="edge52" class="edge">
<title>35&#45;&gt;0</title>
<path fill="none" stroke="black" d="M287.87,-647.53C322.51,-623.94 376.25,-578.42 376.25,-523 376.25,-523 376.25,-523 376.25,-161 376.25,-64.15 700.53,-32.29 850.64,-22.73"/>
<polygon fill="black" stroke="black" points="850.73,-26.24 860.49,-22.13 850.3,-19.25 850.73,-26.24"/>
</g>
<!-- 36 -->
<g id="node37" class="node">
<title>36</title>
<polygon fill="none" stroke="black" points="563.25,-1404 509.25,-1404 509.25,-1368 563.25,-1368 563.25,-1404"/>
<text text-anchor="middle" x="536.25" y="-1380.95" font-family="Times,serif" font-size="14.00">gen</text>
</g>
<!-- 37 -->
<g id="node38" class="node">
<title>37</title>
<polygon fill="none" stroke="black" points="669.62,-1404 580.88,-1404 580.88,-1368 669.62,-1368 669.62,-1404"/>
<text text-anchor="middle" x="625.25" y="-1380.95" font-family="Times,serif" font-size="14.00">gen&#45;common</text>
</g>
<!-- 38 -->
<g id="node39" class="node">
<title>38</title>
<polygon fill="none" stroke="black" points="1017.25,-1044 911.25,-1044 911.25,-1008 1017.25,-1008 1017.25,-1044"/>
<text text-anchor="middle" x="964.25" y="-1020.95" font-family="Times,serif" font-size="14.00">datafusion&#45;spark</text>
</g>
<!-- 38&#45;&gt;2 -->
<g id="edge53" class="edge">
<title>38&#45;&gt;2</title>
<path fill="none" stroke="black" d="M910.9,-1010C907.98,-1009.3 905.08,-1008.62 902.25,-1008 811.14,-987.94 784.06,-991.61 689.52,-972.37"/>
<polygon fill="black" stroke="black" points="690.27,-968.95 679.77,-970.35 688.85,-975.8 690.27,-968.95"/>
</g>
<!-- 38&#45;&gt;22 -->
<g id="edge54" class="edge">
<title>38&#45;&gt;22</title>
<path fill="none" stroke="black" d="M960.86,-1007.5C954.65,-977.3 939.93,-913.82 917.25,-864 913.19,-855.09 907.81,-845.92 902.53,-837.77"/>
<polygon fill="black" stroke="black" points="905.57,-836.02 897.08,-829.68 899.76,-839.93 905.57,-836.02"/>
</g>
<!-- 39 -->
<g id="node40" class="node">
<title>39</title>
<polygon fill="none" stroke="black" points="896.38,-1260 758.12,-1260 758.12,-1224 896.38,-1224 896.38,-1260"/>
<text text-anchor="middle" x="827.25" y="-1236.95" font-family="Times,serif" font-size="14.00">datafusion&#45;sqllogictest</text>
</g>
<!-- 39&#45;&gt;38 -->
<g id="edge55" class="edge">
<title>39&#45;&gt;38</title>
<path fill="none" stroke="black" d="M851.7,-1223.62C863.81,-1214.11 878,-1201.53 888.25,-1188 920.11,-1145.94 943.27,-1088.39 955.17,-1054.7"/>
<polygon fill="black" stroke="black" points="958.33,-1056.28 958.28,-1045.68 951.71,-1054 958.33,-1056.28"/>
</g>
<!-- 40 -->
<g id="node41" class="node">
<title>40</title>
<polygon fill="none" stroke="black" points="771.5,-1188 649,-1188 649,-1152 771.5,-1152 771.5,-1188"/>
<text text-anchor="middle" x="710.25" y="-1164.95" font-family="Times,serif" font-size="14.00">datafusion&#45;substrait</text>
</g>
<!-- 39&#45;&gt;40 -->
<g id="edge56" class="edge">
<title>39&#45;&gt;40</title>
<path fill="none" stroke="black" d="M798.03,-1223.52C783.12,-1214.6 764.79,-1203.63 748.74,-1194.03"/>
<polygon fill="black" stroke="black" points="750.78,-1191.17 740.4,-1189.04 747.18,-1197.18 750.78,-1191.17"/>
</g>
<!-- 40&#45;&gt;27 -->
<g id="edge57" class="edge">
<title>40&#45;&gt;27</title>
<path fill="none" stroke="black" d="M692.7,-1151.7C684.27,-1143.39 674.02,-1133.28 664.75,-1124.14"/>
<polygon fill="black" stroke="black" points="667.25,-1121.7 657.68,-1117.17 662.34,-1126.68 667.25,-1121.7"/>
</g>
<!-- 41 -->
<g id="node42" class="node">
<title>41</title>
<polygon fill="none" stroke="black" points="631.12,-1188 503.38,-1188 503.38,-1152 631.12,-1152 631.12,-1188"/>
<text text-anchor="middle" x="567.25" y="-1164.95" font-family="Times,serif" font-size="14.00">datafusion&#45;wasmtest</text>
</g>
<!-- 41&#45;&gt;27 -->
<g id="edge59" class="edge">
<title>41&#45;&gt;27</title>
<path fill="none" stroke="black" d="M585.05,-1151.7C593.53,-1143.45 603.84,-1133.43 613.18,-1124.35"/>
<polygon fill="black" stroke="black" points="615.59,-1126.88 620.32,-1117.4 610.71,-1121.86 615.59,-1126.88"/>
</g>
<!-- 42 -->
<g id="node43" class="node">
<title>42</title>
<polygon fill="none" stroke="black" points="879.38,-1188 789.12,-1188 789.12,-1152 879.38,-1152 879.38,-1188"/>
<text text-anchor="middle" x="834.25" y="-1164.95" font-family="Times,serif" font-size="14.00">datafusion&#45;cli</text>
</g>
<!-- 42&#45;&gt;27 -->
<g id="edge60" class="edge">
<title>42&#45;&gt;27</title>
<path fill="none" stroke="black" d="M789.02,-1152.76C758.23,-1141.71 717.55,-1127.11 686.36,-1115.91"/>
<polygon fill="black" stroke="black" points="687.78,-1112.7 677.18,-1112.62 685.41,-1119.29 687.78,-1112.7"/>
</g>
<!-- 43 -->
<g id="node44" class="node">
<title>43</title>
<polygon fill="none" stroke="black" points="128.5,-1260 0,-1260 0,-1224 128.5,-1224 128.5,-1260"/>
<text text-anchor="middle" x="64.25" y="-1236.95" font-family="Times,serif" font-size="14.00">datafusion&#45;examples</text>
</g>
<!-- 43&#45;&gt;34 -->
<g id="edge61" class="edge">
<title>43&#45;&gt;34</title>
<path fill="none" stroke="blue" d="M102.71,-1223.52C123,-1214.29 148.1,-1202.89 169.72,-1193.06"/>
<polygon fill="blue" stroke="blue" points="170.98,-1196.33 178.63,-1189.01 168.08,-1189.96 170.98,-1196.33"/>
</g>
<!-- 44 -->
<g id="node45" class="node">
<title>44</title>
<polygon fill="none" stroke="black" points="356,-1404 188.5,-1404 188.5,-1368 356,-1368 356,-1404"/>
<text text-anchor="middle" x="272.25" y="-1380.95" font-family="Times,serif" font-size="14.00">ffi_example_table_provider</text>
</g>
<!-- 45 -->
<g id="node46" class="node">
<title>45</title>
<polygon fill="none" stroke="black" points="417.62,-1332 286.88,-1332 286.88,-1296 417.62,-1296 417.62,-1332"/>
<text text-anchor="middle" x="352.25" y="-1308.95" font-family="Times,serif" font-size="14.00">ffi_module_interface</text>
</g>
<!-- 44&#45;&gt;45 -->
<g id="edge62" class="edge">
<title>44&#45;&gt;45</title>
<path fill="none" stroke="black" d="M292.03,-1367.7C301.64,-1359.28 313.37,-1349.02 323.92,-1339.79"/>
<polygon fill="black" stroke="black" points="326.06,-1342.56 331.29,-1333.34 321.46,-1337.29 326.06,-1342.56"/>
</g>
<!-- 45&#45;&gt;33 -->
<g id="edge63" class="edge">
<title>45&#45;&gt;33</title>
<path fill="none" stroke="black" d="M352.25,-1295.7C352.25,-1288.41 352.25,-1279.73 352.25,-1271.54"/>
<polygon fill="black" stroke="black" points="355.75,-1271.62 352.25,-1261.62 348.75,-1271.62 355.75,-1271.62"/>
</g>
<!-- 46 -->
<g id="node47" class="node">
<title>46</title>
<polygon fill="none" stroke="black" points="490.88,-1404 373.62,-1404 373.62,-1368 490.88,-1368 490.88,-1404"/>
<text text-anchor="middle" x="432.25" y="-1380.95" font-family="Times,serif" font-size="14.00">ffi_module_loader</text>
</g>
<!-- 46&#45;&gt;45 -->
<g id="edge64" class="edge">
<title>46&#45;&gt;45</title>
<path fill="none" stroke="black" d="M412.47,-1367.7C402.86,-1359.28 391.13,-1349.02 380.58,-1339.79"/>
<polygon fill="black" stroke="black" points="383.04,-1337.29 373.21,-1333.34 378.44,-1342.56 383.04,-1337.29"/>
</g>
<!-- 47 -->
<g id="node48" class="node">
<title>47</title>
<polygon fill="none" stroke="black" points="289.62,-1260 146.88,-1260 146.88,-1224 289.62,-1224 289.62,-1260"/>
<text text-anchor="middle" x="218.25" y="-1236.95" font-family="Times,serif" font-size="14.00">datafusion&#45;benchmarks</text>
</g>
<!-- 47&#45;&gt;34 -->
<g id="edge65" class="edge">
<title>47&#45;&gt;34</title>
<path fill="none" stroke="blue" d="M218.25,-1223.7C218.25,-1216.41 218.25,-1207.73 218.25,-1199.54"/>
<polygon fill="blue" stroke="blue" points="221.75,-1199.62 218.25,-1189.62 214.75,-1199.62 221.75,-1199.62"/>
</g>
</g>
</svg>
