<?xml version="1.0" encoding="UTF-8" standalone="no"?>
<!DOCTYPE svg PUBLIC "-//W3C//DTD SVG 1.1//EN"
 "http://www.w3.org/Graphics/SVG/1.1/DTD/svg11.dtd">
<!-- Generated by graphviz version 2.43.0 (0)
 -->
<!-- Title: %3 Pages: 1 -->
<svg width="1433pt" height="1412pt"
 viewBox="0.00 0.00 1433.00 1412.00" xmlns="http://www.w3.org/2000/svg" xmlns:xlink="http://www.w3.org/1999/xlink">
<g id="graph0" class="graph" transform="scale(1 1) rotate(0) translate(4 1408)">
<title>%3</title>
<polygon fill="white" stroke="transparent" points="-4,4 -4,-1408 1429,-1408 1429,4 -4,4"/>
<!-- 0 -->
<g id="node1" class="node">
<title>0</title>
<polygon fill="none" stroke="black" points="1135,-36 979,-36 979,0 1135,0 1135,-36"/>
<text text-anchor="middle" x="1057" y="-14.3" font-family="Times,serif" font-size="14.00">datafusion&#45;common</text>
</g>
<!-- 1 -->
<g id="node2" class="node">
<title>1</title>
<polygon fill="none" stroke="black" points="806,-612 588,-612 588,-576 806,-576 806,-612"/>
<text text-anchor="middle" x="697" y="-590.3" font-family="Times,serif" font-size="14.00">datafusion&#45;common&#45;runtime</text>
</g>
<!-- 2 -->
<g id="node3" class="node">
<title>2</title>
<polygon fill="none" stroke="black" points="887,-972 739,-972 739,-936 887,-936 887,-972"/>
<text text-anchor="middle" x="813" y="-950.3" font-family="Times,serif" font-size="14.00">datafusion&#45;catalog</text>
</g>
<!-- 3 -->
<g id="node4" class="node">
<title>3</title>
<polygon fill="none" stroke="black" points="672.5,-828 497.5,-828 497.5,-792 672.5,-792 672.5,-828"/>
<text text-anchor="middle" x="585" y="-806.3" font-family="Times,serif" font-size="14.00">datafusion&#45;datasource</text>
</g>
<!-- 2&#45;&gt;3 -->
<g id="edge1" class="edge">
<title>2&#45;&gt;3</title>
<path fill="none" stroke="black" d="M796.37,-936C784.7,-922.77 770.13,-903.31 764,-883"/>
</g>
<!-- 14 -->
<g id="node15" class="node">
<title>14</title>
<polygon fill="none" stroke="black" points="693.5,-756 442.5,-756 442.5,-720 693.5,-720 693.5,-756"/>
<text text-anchor="middle" x="568" y="-734.3" font-family="Times,serif" font-size="14.00">datafusion&#45;physical&#45;expr&#45;adapter</text>
</g>
<!-- 3&#45;&gt;14 -->
<g id="edge2" class="edge">
<title>3&#45;&gt;14</title>
<path fill="none" stroke="black" d="M580.8,-791.7C578.9,-783.9 576.62,-774.51 574.52,-765.83"/>
<polygon fill="black" stroke="black" points="577.92,-765 572.15,-756.1 571.11,-766.65 577.92,-765"/>
</g>
<!-- 18 -->
<g id="node19" class="node">
<title>18</title>
<polygon fill="none" stroke="black" points="917.5,-756 768.5,-756 768.5,-720 917.5,-720 917.5,-756"/>
<text text-anchor="middle" x="843" y="-734.3" font-family="Times,serif" font-size="14.00">datafusion&#45;session</text>
</g>
<!-- 3&#45;&gt;18 -->
<g id="edge3" class="edge">
<title>3&#45;&gt;18</title>
<path fill="none" stroke="black" d="M647.78,-791.97C684.62,-781.97 731.33,-769.3 769.82,-758.85"/>
<polygon fill="black" stroke="black" points="771.2,-762.11 779.93,-756.11 769.37,-755.35 771.2,-762.11"/>
</g>
<!-- 4 -->
<g id="node5" class="node">
<title>4</title>
<polygon fill="none" stroke="black" points="983.5,-396 818.5,-396 818.5,-360 983.5,-360 983.5,-396"/>
<text text-anchor="middle" x="901" y="-374.3" font-family="Times,serif" font-size="14.00">datafusion&#45;execution</text>
</g>
<!-- 5 -->
<g id="node6" class="node">
<title>5</title>
<polygon fill="none" stroke="black" points="965,-324 837,-324 837,-288 965,-288 965,-324"/>
<text text-anchor="middle" x="901" y="-302.3" font-family="Times,serif" font-size="14.00">datafusion&#45;expr</text>
</g>
<!-- 4&#45;&gt;5 -->
<g id="edge4" class="edge">
<title>4&#45;&gt;5</title>
<path fill="none" stroke="black" d="M901,-359.7C901,-351.98 901,-342.71 901,-334.11"/>
<polygon fill="black" stroke="black" points="904.5,-334.1 901,-324.1 897.5,-334.1 904.5,-334.1"/>
</g>
<!-- 6 -->
<g id="node7" class="node">
<title>6</title>
<polygon fill="none" stroke="black" points="730.5,-252 609.5,-252 609.5,-216 730.5,-216 730.5,-252"/>
<text text-anchor="middle" x="670" y="-230.3" font-family="Times,serif" font-size="14.00">datafusion&#45;doc</text>
</g>
<!-- 5&#45;&gt;6 -->
<g id="edge5" class="edge">
<title>5&#45;&gt;6</title>
<path fill="none" stroke="black" d="M844.79,-287.97C812.09,-278.06 770.7,-265.51 736.4,-255.12"/>
<polygon fill="black" stroke="black" points="737.05,-251.66 726.47,-252.11 735.02,-258.36 737.05,-251.66"/>
</g>
<!-- 8 -->
<g id="node9" class="node">
<title>8</title>
<polygon fill="none" stroke="black" points="1053,-252 749,-252 749,-216 1053,-216 1053,-252"/>
<text text-anchor="middle" x="901" y="-230.3" font-family="Times,serif" font-size="14.00">datafusion&#45;functions&#45;aggregate&#45;common</text>
</g>
<!-- 5&#45;&gt;8 -->
<g id="edge6" class="edge">
<title>5&#45;&gt;8</title>
<path fill="none" stroke="black" d="M901,-287.7C901,-279.98 901,-270.71 901,-262.11"/>
<polygon fill="black" stroke="black" points="904.5,-262.1 901,-252.1 897.5,-262.1 904.5,-262.1"/>
</g>
<!-- 10 -->
<g id="node11" class="node">
<title>10</title>
<polygon fill="none" stroke="black" points="1357,-252 1071,-252 1071,-216 1357,-216 1357,-252"/>
<text text-anchor="middle" x="1214" y="-230.3" font-family="Times,serif" font-size="14.00">datafusion&#45;functions&#45;window&#45;common</text>
</g>
<!-- 5&#45;&gt;10 -->
<g id="edge7" class="edge">
<title>5&#45;&gt;10</title>
<path fill="none" stroke="black" d="M965.1,-290.67C1012.14,-280.14 1076.55,-265.74 1128.05,-254.22"/>
<polygon fill="black" stroke="black" points="1128.85,-257.63 1137.84,-252.03 1127.32,-250.8 1128.85,-257.63"/>
</g>
<!-- 7 -->
<g id="node8" class="node">
<title>7</title>
<polygon fill="none" stroke="black" points="1153.5,-108 960.5,-108 960.5,-72 1153.5,-72 1153.5,-108"/>
<text text-anchor="middle" x="1057" y="-86.3" font-family="Times,serif" font-size="14.00">datafusion&#45;expr&#45;common</text>
</g>
<!-- 7&#45;&gt;0 -->
<g id="edge8" class="edge">
<title>7&#45;&gt;0</title>
<path fill="none" stroke="black" d="M1057,-71.7C1057,-63.98 1057,-54.71 1057,-46.11"/>
<polygon fill="black" stroke="black" points="1060.5,-46.1 1057,-36.1 1053.5,-46.1 1060.5,-46.1"/>
</g>
<!-- 9 -->
<g id="node10" class="node">
<title>9</title>
<polygon fill="none" stroke="black" points="1185,-180 929,-180 929,-144 1185,-144 1185,-180"/>
<text text-anchor="middle" x="1057" y="-158.3" font-family="Times,serif" font-size="14.00">datafusion&#45;physical&#45;expr&#45;common</text>
</g>
<!-- 8&#45;&gt;9 -->
<g id="edge9" class="edge">
<title>8&#45;&gt;9</title>
<path fill="none" stroke="black" d="M939.16,-215.88C960.39,-206.35 987.01,-194.41 1009.57,-184.28"/>
<polygon fill="black" stroke="black" points="1011.27,-187.36 1018.96,-180.07 1008.41,-180.97 1011.27,-187.36"/>
</g>
<!-- 9&#45;&gt;7 -->
<g id="edge10" class="edge">
<title>9&#45;&gt;7</title>
<path fill="none" stroke="black" d="M1057,-143.7C1057,-135.98 1057,-126.71 1057,-118.11"/>
<polygon fill="black" stroke="black" points="1060.5,-118.1 1057,-108.1 1053.5,-118.1 1060.5,-118.1"/>
</g>
<!-- 10&#45;&gt;9 -->
<g id="edge11" class="edge">
<title>10&#45;&gt;9</title>
<path fill="none" stroke="black" d="M1175.59,-215.88C1154.13,-206.31 1127.2,-194.3 1104.43,-184.15"/>
<polygon fill="black" stroke="black" points="1105.84,-180.94 1095.28,-180.07 1102.99,-187.34 1105.84,-180.94"/>
</g>
<!-- 11 -->
<g id="node12" class="node">
<title>11</title>
<polygon fill="none" stroke="black" points="1005.5,-540 814.5,-540 814.5,-504 1005.5,-504 1005.5,-540"/>
<text text-anchor="middle" x="910" y="-518.3" font-family="Times,serif" font-size="14.00">datafusion&#45;physical&#45;expr</text>
</g>
<!-- 12 -->
<g id="node13" class="node">
<title>12</title>
<polygon fill="none" stroke="black" points="982,-468 820,-468 820,-432 982,-432 982,-468"/>
<text text-anchor="middle" x="901" y="-446.3" font-family="Times,serif" font-size="14.00">datafusion&#45;functions</text>
</g>
<!-- 11&#45;&gt;12 -->
<g id="edge12" class="edge">
<title>11&#45;&gt;12</title>
<path fill="none" stroke="blue" d="M907.78,-503.7C906.78,-495.98 905.59,-486.71 904.49,-478.11"/>
<polygon fill="blue" stroke="blue" points="907.95,-477.58 903.2,-468.1 901,-478.47 907.95,-477.58"/>
</g>
<!-- 12&#45;&gt;4 -->
<g id="edge13" class="edge">
<title>12&#45;&gt;4</title>
<path fill="none" stroke="black" d="M901,-431.7C901,-423.98 901,-414.71 901,-406.11"/>
<polygon fill="black" stroke="black" points="904.5,-406.1 901,-396.1 897.5,-406.1 904.5,-406.1"/>
</g>
<!-- 13 -->
<g id="node14" class="node">
<title>13</title>
<polygon fill="none" stroke="#00cd00" points="782,-324 634,-324 634,-288 782,-288 782,-324"/>
<text text-anchor="middle" x="708" y="-302.3" font-family="Times,serif" font-size="14.00">datafusion&#45;macros</text>
</g>
<!-- 12&#45;&gt;13 -->
<g id="edge14" class="edge">
<title>12&#45;&gt;13</title>
<path fill="none" stroke="#00cd00" d="M867.66,-431.89C849.73,-422.18 827.57,-409.33 809,-396 781.34,-376.15 752.46,-350.08 732.7,-331.29"/>
<polygon fill="#00cd00" stroke="#00cd00" points="734.98,-328.62 725.34,-324.22 730.13,-333.67 734.98,-328.62"/>
</g>
<!-- 13&#45;&gt;6 -->
<g id="edge15" class="edge">
<title>13&#45;&gt;6</title>
<path fill="none" stroke="#00cd00" d="M698.61,-287.7C694.24,-279.64 688.94,-269.89 684.1,-260.98"/>
<polygon fill="#00cd00" stroke="#00cd00" points="687.13,-259.22 679.29,-252.1 680.98,-262.56 687.13,-259.22"/>
</g>
<!-- 14&#45;&gt;11 -->
<g id="edge16" class="edge">
<title>14&#45;&gt;11</title>
<path fill="none" stroke="black" d="M563.05,-719.8C554.8,-687.16 542.54,-615.93 579,-576 608.73,-543.45 719.2,-530.86 804.43,-526.01"/>
<polygon fill="black" stroke="black" points="804.63,-529.51 814.43,-525.47 804.25,-522.52 804.63,-529.51"/>
</g>
<!-- 15 -->
<g id="node16" class="node">
<title>15</title>
<polygon fill="none" stroke="black" points="953,-684 763,-684 763,-648 953,-648 953,-684"/>
<text text-anchor="middle" x="858" y="-662.3" font-family="Times,serif" font-size="14.00">datafusion&#45;physical&#45;plan</text>
</g>
<!-- 15&#45;&gt;1 -->
<g id="edge17" class="edge">
<title>15&#45;&gt;1</title>
<path fill="none" stroke="black" d="M818.61,-647.88C796.61,-638.31 768.99,-626.3 745.64,-616.15"/>
<polygon fill="black" stroke="black" points="746.82,-612.85 736.26,-612.07 744.03,-619.27 746.82,-612.85"/>
</g>
<!-- 16 -->
<g id="node17" class="node">
<title>16</title>
<polygon fill="none" stroke="black" points="1063.5,-612 824.5,-612 824.5,-576 1063.5,-576 1063.5,-612"/>
<text text-anchor="middle" x="944" y="-590.3" font-family="Times,serif" font-size="14.00">datafusion&#45;functions&#45;aggregate</text>
</g>
<!-- 15&#45;&gt;16 -->
<g id="edge18" class="edge">
<title>15&#45;&gt;16</title>
<path fill="none" stroke="blue" d="M879.26,-647.7C890.09,-638.88 903.42,-628.03 915.16,-618.47"/>
<polygon fill="blue" stroke="blue" points="917.44,-621.13 922.99,-612.1 913.02,-615.7 917.44,-621.13"/>
</g>
<!-- 17 -->
<g id="node18" class="node">
<title>17</title>
<polygon fill="none" stroke="black" points="1302.5,-612 1081.5,-612 1081.5,-576 1302.5,-576 1302.5,-612"/>
<text text-anchor="middle" x="1192" y="-590.3" font-family="Times,serif" font-size="14.00">datafusion&#45;functions&#45;window</text>
</g>
<!-- 15&#45;&gt;17 -->
<g id="edge19" class="edge">
<title>15&#45;&gt;17</title>
<path fill="none" stroke="blue" d="M939.28,-647.97C988.07,-637.74 1050.24,-624.71 1100.72,-614.13"/>
<polygon fill="blue" stroke="blue" points="1101.58,-617.53 1110.65,-612.05 1100.14,-610.68 1101.58,-617.53"/>
</g>
<!-- 16&#45;&gt;11 -->
<g id="edge20" class="edge">
<title>16&#45;&gt;11</title>
<path fill="none" stroke="black" d="M935.6,-575.7C931.73,-567.73 927.05,-558.1 922.76,-549.26"/>
<polygon fill="black" stroke="black" points="925.83,-547.57 918.31,-540.1 919.53,-550.63 925.83,-547.57"/>
</g>
<!-- 17&#45;&gt;11 -->
<g id="edge21" class="edge">
<title>17&#45;&gt;11</title>
<path fill="none" stroke="black" d="M1123.38,-575.97C1082.69,-565.87 1030.97,-553.03 988.64,-542.52"/>
<polygon fill="black" stroke="black" points="989.48,-539.12 978.93,-540.11 987.79,-545.92 989.48,-539.12"/>
</g>
<!-- 18&#45;&gt;15 -->
<g id="edge22" class="edge">
<title>18&#45;&gt;15</title>
<path fill="none" stroke="black" d="M846.71,-719.7C848.36,-711.98 850.35,-702.71 852.19,-694.11"/>
<polygon fill="black" stroke="black" points="855.66,-694.62 854.33,-684.1 848.82,-693.15 855.66,-694.62"/>
</g>
<!-- 19 -->
<g id="node20" class="node">
<title>19</title>
<polygon fill="none" stroke="black" points="929.5,-1044 732.5,-1044 732.5,-1008 929.5,-1008 929.5,-1044"/>
<text text-anchor="middle" x="831" y="-1022.3" font-family="Times,serif" font-size="14.00">datafusion&#45;catalog&#45;listing</text>
</g>
<!-- 19&#45;&gt;2 -->
<g id="edge23" class="edge">
<title>19&#45;&gt;2</title>
<path fill="none" stroke="black" d="M826.55,-1007.7C824.55,-999.9 822.13,-990.51 819.9,-981.83"/>
<polygon fill="black" stroke="black" points="823.28,-980.92 817.4,-972.1 816.5,-982.66 823.28,-980.92"/>
</g>
<!-- 20 -->
<g id="node21" class="node">
<title>20</title>
<polygon fill="none" stroke="black" points="1141,-972 905,-972 905,-936 1141,-936 1141,-972"/>
<text text-anchor="middle" x="1023" y="-950.3" font-family="Times,serif" font-size="14.00">datafusion&#45;datasource&#45;parquet</text>
</g>
<!-- 19&#45;&gt;20 -->
<g id="edge24" class="edge">
<title>19&#45;&gt;20</title>
<path fill="none" stroke="blue" d="M877.97,-1007.88C904.68,-998.14 938.32,-985.87 966.47,-975.61"/>
<polygon fill="blue" stroke="blue" points="967.99,-978.78 976.18,-972.07 965.59,-972.21 967.99,-978.78"/>
</g>
<!-- 21 -->
<g id="node22" class="node">
<title>21</title>
<polygon fill="none" stroke="black" points="1099,-900 947,-900 947,-864 1099,-864 1099,-900"/>
<text text-anchor="middle" x="1023" y="-878.3" font-family="Times,serif" font-size="14.00">datafusion&#45;pruning</text>
</g>
<!-- 20&#45;&gt;21 -->
<g id="edge25" class="edge">
<title>20&#45;&gt;21</title>
<path fill="none" stroke="black" d="M1023,-935.7C1023,-927.98 1023,-918.71 1023,-910.11"/>
<polygon fill="black" stroke="black" points="1026.5,-910.1 1023,-900.1 1019.5,-910.1 1026.5,-910.1"/>
</g>
<!-- 21&#45;&gt;3 -->
<g id="edge26" class="edge">
<title>21&#45;&gt;3</title>
<path fill="none" stroke="black" d="M946.71,-868.81C873.49,-857.11 762.58,-839.38 682.89,-826.64"/>
<polygon fill="black" stroke="black" points="683.26,-823.16 672.84,-825.04 682.16,-830.07 683.26,-823.16"/>
</g>
<!-- 22 -->
<g id="node23" class="node">
<title>22</title>
<polygon fill="none" stroke="black" points="1130.5,-828 915.5,-828 915.5,-792 1130.5,-792 1130.5,-828"/>
<text text-anchor="middle" x="1023" y="-806.3" font-family="Times,serif" font-size="14.00">datafusion&#45;functions&#45;nested</text>
</g>
<!-- 21&#45;&gt;22 -->
<g id="edge27" class="edge">
<title>21&#45;&gt;22</title>
<path fill="none" stroke="blue" d="M1023,-863.7C1023,-855.98 1023,-846.71 1023,-838.11"/>
<polygon fill="blue" stroke="blue" points="1026.5,-838.1 1023,-828.1 1019.5,-838.1 1026.5,-838.1"/>
</g>
<!-- 22&#45;&gt;16 -->
<g id="edge28" class="edge">
<title>22&#45;&gt;16</title>
<path fill="none" stroke="black" d="M1016.67,-791.85C1002.95,-754.68 970.37,-666.44 953.9,-621.82"/>
<polygon fill="black" stroke="black" points="957.11,-620.4 950.36,-612.23 950.54,-622.83 957.11,-620.4"/>
</g>
<!-- 23 -->
<g id="node24" class="node">
<title>23</title>
<polygon fill="none" stroke="black" points="426.5,-900 205.5,-900 205.5,-864 426.5,-864 426.5,-900"/>
<text text-anchor="middle" x="316" y="-878.3" font-family="Times,serif" font-size="14.00">datafusion&#45;datasource&#45;arrow</text>
</g>
<!-- 23&#45;&gt;3 -->
<g id="edge29" class="edge">
<title>23&#45;&gt;3</title>
<path fill="none" stroke="black" d="M381.46,-863.97C420.11,-853.91 469.19,-841.14 509.47,-830.65"/>
<polygon fill="black" stroke="black" points="510.45,-834.02 519.25,-828.11 508.69,-827.24 510.45,-834.02"/>
</g>
<!-- 24 -->
<g id="node25" class="node">
<title>24</title>
<polygon fill="none" stroke="black" points="454.5,-972 243.5,-972 243.5,-936 454.5,-936 454.5,-972"/>
<text text-anchor="middle" x="349" y="-950.3" font-family="Times,serif" font-size="14.00">datafusion&#45;datasource&#45;avro</text>
</g>
<!-- 24&#45;&gt;3 -->
<g id="edge30" class="edge">
<title>24&#45;&gt;3</title>
<path fill="none" stroke="black" d="M379.79,-935.98C396.62,-926.19 417.53,-913.25 435,-900 453.8,-885.75 454.47,-877.23 474,-864 492.08,-851.75 513.43,-840.83 532.55,-832.13"/>
<polygon fill="black" stroke="black" points="534.02,-835.31 541.73,-828.04 531.17,-828.91 534.02,-835.31"/>
</g>
<!-- 25 -->
<g id="node26" class="node">
<title>25</title>
<polygon fill="none" stroke="black" points="686.5,-900 483.5,-900 483.5,-864 686.5,-864 686.5,-900"/>
<text text-anchor="middle" x="585" y="-878.3" font-family="Times,serif" font-size="14.00">datafusion&#45;datasource&#45;csv</text>
</g>
<!-- 25&#45;&gt;3 -->
<g id="edge31" class="edge">
<title>25&#45;&gt;3</title>
<path fill="none" stroke="black" d="M585,-863.7C585,-855.98 585,-846.71 585,-838.11"/>
<polygon fill="black" stroke="black" points="588.5,-838.1 585,-828.1 581.5,-838.1 588.5,-838.1"/>
</g>
<!-- 26 -->
<g id="node27" class="node">
<title>26</title>
<polygon fill="none" stroke="black" points="720.5,-972 511.5,-972 511.5,-936 720.5,-936 720.5,-972"/>
<text text-anchor="middle" x="616" y="-950.3" font-family="Times,serif" font-size="14.00">datafusion&#45;datasource&#45;json</text>
</g>
<!-- 26&#45;&gt;3 -->
<g id="edge32" class="edge">
<title>26&#45;&gt;3</title>
<path fill="none" stroke="black" d="M720.9,-937.76C750.37,-927.67 772.42,-910.89 764,-883"/>
<path fill="none" stroke="black" d="M764,-881C753.38,-845.81 718.77,-827.95 682.77,-819.01"/>
<polygon fill="black" stroke="black" points="683.12,-815.5 672.6,-816.72 681.58,-822.33 683.12,-815.5"/>
</g>
<!-- 27 -->
<g id="node28" class="node">
<title>27</title>
<polygon fill="none" stroke="black" points="877,-1116 785,-1116 785,-1080 877,-1080 877,-1116"/>
<text text-anchor="middle" x="831" y="-1094.3" font-family="Times,serif" font-size="14.00">datafusion</text>
</g>
<!-- 27&#45;&gt;19 -->
<g id="edge33" class="edge">
<title>27&#45;&gt;19</title>
<path fill="none" stroke="black" d="M831,-1079.7C831,-1071.98 831,-1062.71 831,-1054.11"/>
<polygon fill="black" stroke="black" points="834.5,-1054.1 831,-1044.1 827.5,-1054.1 834.5,-1054.1"/>
</g>
<!-- 27&#45;&gt;23 -->
<g id="edge34" class="edge">
<title>27&#45;&gt;23</title>
<path fill="none" stroke="black" d="M784.98,-1097.59C719.09,-1096.72 595.48,-1088.56 502,-1044 491.77,-1039.12 492.84,-1032.62 483,-1027"/>
<path fill="none" stroke="black" d="M483,-1025C384.77,-968.85 305.19,-1059.94 234,-972 223.93,-959.56 226.35,-950.05 234,-936 240.91,-923.3 252.32,-913.18 264.46,-905.33"/>
<polygon fill="black" stroke="black" points="266.59,-908.14 273.38,-900.01 263,-902.13 266.59,-908.14"/>
</g>
<!-- 27&#45;&gt;24 -->
<g id="edge35" class="edge">
<title>27&#45;&gt;24</title>
<path fill="none" stroke="black" stroke-dasharray="1,5" d="M483,-1025C453.01,-1008.16 418.61,-990.21 392.17,-976.71"/>
<polygon fill="black" stroke="black" points="393.67,-973.55 383.17,-972.13 390.5,-979.79 393.67,-973.55"/>
</g>
<!-- 27&#45;&gt;25 -->
<g id="edge36" class="edge">
<title>27&#45;&gt;25</title>
<path fill="none" stroke="black" d="M483,-1025C447.73,-1005.19 478.95,-969.24 502,-936 510.63,-923.56 523.22,-913.38 536,-905.39"/>
<polygon fill="black" stroke="black" points="537.98,-908.29 544.83,-900.21 534.44,-902.25 537.98,-908.29"/>
</g>
<!-- 27&#45;&gt;26 -->
<g id="edge37" class="edge">
<title>27&#45;&gt;26</title>
<path fill="none" stroke="black" d="M483,-1025C451.84,-1007.5 492.09,-988.69 536.25,-974.98"/>
<polygon fill="black" stroke="black" points="537.44,-978.28 546.01,-972.05 535.43,-971.57 537.44,-978.28"/>
</g>
<!-- 28 -->
<g id="node29" class="node">
<title>28</title>
<polygon fill="none" stroke="black" points="714.5,-1044 511.5,-1044 511.5,-1008 714.5,-1008 714.5,-1044"/>
<text text-anchor="middle" x="613" y="-1022.3" font-family="Times,serif" font-size="14.00">datafusion&#45;functions&#45;table</text>
</g>
<!-- 27&#45;&gt;28 -->
<g id="edge38" class="edge">
<title>27&#45;&gt;28</title>
<path fill="none" stroke="black" d="M784.77,-1082.15C753.01,-1071.96 710.46,-1058.3 675.66,-1047.12"/>
<polygon fill="black" stroke="black" points="676.66,-1043.76 666.07,-1044.04 674.52,-1050.43 676.66,-1043.76"/>
</g>
<!-- 29 -->
<g id="node30" class="node">
<title>29</title>
<polygon fill="none" stroke="black" points="1357,-1044 1193,-1044 1193,-1008 1357,-1008 1357,-1044"/>
<text text-anchor="middle" x="1275" y="-1022.3" font-family="Times,serif" font-size="14.00">datafusion&#45;optimizer</text>
</g>
<!-- 27&#45;&gt;29 -->
<g id="edge39" class="edge">
<title>27&#45;&gt;29</title>
<path fill="none" stroke="black" d="M877.06,-1090.62C942.62,-1081.42 1066.86,-1063.55 1182.59,-1044.21"/>
<polygon fill="black" stroke="black" points="1183.4,-1047.62 1192.68,-1042.51 1182.24,-1040.72 1183.4,-1047.62"/>
</g>
<!-- 31 -->
<g id="node32" class="node">
<title>31</title>
<polygon fill="none" stroke="black" points="1174.5,-1044 947.5,-1044 947.5,-1008 1174.5,-1008 1174.5,-1044"/>
<text text-anchor="middle" x="1061" y="-1022.3" font-family="Times,serif" font-size="14.00">datafusion&#45;physical&#45;optimizer</text>
</g>
<!-- 27&#45;&gt;31 -->
<g id="edge40" class="edge">
<title>27&#45;&gt;31</title>
<path fill="none" stroke="black" d="M877.27,-1082.92C911.1,-1072.62 957.48,-1058.51 995.18,-1047.03"/>
<polygon fill="black" stroke="black" points="996.51,-1050.29 1005.06,-1044.03 994.47,-1043.59 996.51,-1050.29"/>
</g>
<!-- 32 -->
<g id="node33" class="node">
<title>32</title>
<polygon fill="none" stroke="black" points="1425,-540 1345,-540 1345,-504 1425,-504 1425,-540"/>
<text text-anchor="middle" x="1385" y="-518.3" font-family="Times,serif" font-size="14.00">test&#45;utils</text>
</g>
<!-- 27&#45;&gt;32 -->
<g id="edge42" class="edge">
<title>27&#45;&gt;32</title>
<path fill="none" stroke="blue" d="M877,-1095.51C1000.04,-1091.08 1329.86,-1076.31 1366,-1044 1396.15,-1017.04 1385,-995.45 1385,-955 1385,-955 1385,-955 1385,-665 1385,-625 1385,-578.65 1385,-550.08"/>
<polygon fill="blue" stroke="blue" points="1388.5,-550.05 1385,-540.05 1381.5,-550.05 1388.5,-550.05"/>
</g>
<!-- 28&#45;&gt;2 -->
<g id="edge43" class="edge">
<title>28&#45;&gt;2</title>
<path fill="none" stroke="black" d="M661.67,-1007.97C689.61,-998.19 724.9,-985.84 754.36,-975.52"/>
<polygon fill="black" stroke="black" points="755.83,-978.72 764.11,-972.11 753.52,-972.11 755.83,-978.72"/>
</g>
<!-- 30 -->
<g id="node31" class="node">
<title>30</title>
<polygon fill="none" stroke="black" points="1250.5,-900 1133.5,-900 1133.5,-864 1250.5,-864 1250.5,-900"/>
<text text-anchor="middle" x="1192" y="-878.3" font-family="Times,serif" font-size="14.00">datafusion&#45;sql</text>
</g>
<!-- 29&#45;&gt;30 -->
<g id="edge44" class="edge">
<title>29&#45;&gt;30</title>
<path fill="none" stroke="blue" d="M1264.99,-1007.87C1250.59,-983.24 1223.94,-937.64 1207.13,-908.88"/>
<polygon fill="blue" stroke="blue" points="1210.12,-907.06 1202.05,-900.19 1204.07,-910.59 1210.12,-907.06"/>
</g>
<!-- 30&#45;&gt;17 -->
<g id="edge47" class="edge">
<title>30&#45;&gt;17</title>
<path fill="none" stroke="blue" d="M1192,-863.97C1192,-816.29 1192,-681.18 1192,-622.63"/>
<polygon fill="blue" stroke="blue" points="1195.5,-622.31 1192,-612.31 1188.5,-622.31 1195.5,-622.31"/>
</g>
<!-- 30&#45;&gt;22 -->
<g id="edge45" class="edge">
<title>30&#45;&gt;22</title>
<path fill="none" stroke="black" d="M1150.66,-863.88C1127.45,-854.26 1098.31,-842.19 1073.73,-832.01"/>
<polygon fill="black" stroke="black" points="1074.79,-828.66 1064.21,-828.07 1072.11,-835.13 1074.79,-828.66"/>
</g>
<!-- 31&#45;&gt;21 -->
<g id="edge48" class="edge">
<title>31&#45;&gt;21</title>
<path fill="none" stroke="black" d="M1109.03,-1007.85C1124.97,-999.6 1140.94,-987.95 1150,-972 1157.91,-958.09 1158.87,-949.32 1150,-936 1140,-920.99 1124.84,-910.22 1108.45,-902.5"/>
<polygon fill="black" stroke="black" points="1109.81,-899.27 1099.24,-898.51 1107.03,-905.7 1109.81,-899.27"/>
</g>
<!-- 32&#45;&gt;0 -->
<g id="edge49" class="edge">
<title>32&#45;&gt;0</title>
<path fill="none" stroke="black" d="M1385,-503.95C1385,-477.29 1385,-424.11 1385,-379 1385,-379 1385,-379 1385,-161 1385,-56.27 1242.43,-27.91 1145.28,-20.75"/>
<polygon fill="black" stroke="black" points="1145.36,-17.24 1135.15,-20.06 1144.89,-24.23 1145.36,-17.24"/>
</g>
<!-- 33 -->
<g id="node34" class="node">
<title>33</title>
<polygon fill="none" stroke="black" points="255,-1260 145,-1260 145,-1224 255,-1224 255,-1260"/>
<text text-anchor="middle" x="200" y="-1238.3" font-family="Times,serif" font-size="14.00">datafusion&#45;ffi</text>
</g>
<!-- 34 -->
<g id="node35" class="node">
<title>34</title>
<polygon fill="none" stroke="black" points="422,-1188 288,-1188 288,-1152 422,-1152 422,-1188"/>
<text text-anchor="middle" x="355" y="-1166.3" font-family="Times,serif" font-size="14.00">datafusion&#45;proto</text>
</g>
<!-- 33&#45;&gt;34 -->
<g id="edge50" class="edge">
<title>33&#45;&gt;34</title>
<path fill="none" stroke="black" d="M237.92,-1223.88C259.01,-1214.35 285.46,-1202.41 307.87,-1192.28"/>
<polygon fill="black" stroke="black" points="309.53,-1195.37 317.21,-1188.07 306.65,-1188.99 309.53,-1195.37"/>
</g>
<!-- 34&#45;&gt;27 -->
<g id="edge51" class="edge">
<title>34&#45;&gt;27</title>
<path fill="none" stroke="blue" d="M422.19,-1159.12C516.6,-1145.23 686.81,-1120.2 774.85,-1107.26"/>
<polygon fill="blue" stroke="blue" points="775.53,-1110.7 784.91,-1105.78 774.51,-1103.77 775.53,-1110.7"/>
</g>
<!-- 35 -->
<g id="node36" class="node">
<title>35</title>
<polygon fill="none" stroke="black" points="416.5,-684 217.5,-684 217.5,-648 416.5,-648 416.5,-684"/>
<text text-anchor="middle" x="317" y="-662.3" font-family="Times,serif" font-size="14.00">datafusion&#45;proto&#45;common</text>
</g>
<!-- 34&#45;&gt;35 -->
<g id="edge52" class="edge">
<title>34&#45;&gt;35</title>
<path fill="none" stroke="black" d="M301.59,-1151.91C249.16,-1131.39 177,-1091.44 177,-1027 177,-1027 177,-1027 177,-809 177,-754.01 230.9,-712.59 271.81,-689.07"/>
<polygon fill="black" stroke="black" points="273.55,-692.11 280.58,-684.19 270.14,-686 273.55,-692.11"/>
</g>
<!-- 35&#45;&gt;0 -->
<g id="edge53" class="edge">
<title>35&#45;&gt;0</title>
<path fill="none" stroke="black" d="M339.46,-647.97C368.67,-623.71 416,-576.19 416,-523 416,-523 416,-523 416,-161 416,-49.12 792.95,-25.33 968.72,-20.31"/>
<polygon fill="black" stroke="black" points="968.82,-23.81 978.72,-20.04 968.63,-16.81 968.82,-23.81"/>
</g>
<!-- 36 -->
<g id="node37" class="node">
<title>36</title>
<polygon fill="none" stroke="black" points="983,-1188 847,-1188 847,-1152 983,-1152 983,-1188"/>
<text text-anchor="middle" x="915" y="-1166.3" font-family="Times,serif" font-size="14.00">datafusion&#45;spark</text>
</g>
<!-- 36&#45;&gt;27 -->
<g id="edge54" class="edge">
<title>36&#45;&gt;27</title>
<path fill="none" stroke="black" stroke-dasharray="1,5" d="M894.24,-1151.7C883.76,-1142.97 870.89,-1132.24 859.5,-1122.75"/>
<polygon fill="black" stroke="black" points="861.45,-1119.82 851.53,-1116.1 856.97,-1125.19 861.45,-1119.82"/>
</g>
<!-- 37 -->
<g id="node38" class="node">
<title>37</title>
<polygon fill="none" stroke="black" points="921.5,-1260 742.5,-1260 742.5,-1224 921.5,-1224 921.5,-1260"/>
<text text-anchor="middle" x="832" y="-1238.3" font-family="Times,serif" font-size="14.00">datafusion&#45;sqllogictest</text>
</g>
<!-- 37&#45;&gt;36 -->
<g id="edge56" class="edge">
<title>37&#45;&gt;36</title>
<path fill="none" stroke="black" d="M852.52,-1223.7C862.87,-1214.97 875.59,-1204.24 886.84,-1194.75"/>
<polygon fill="black" stroke="black" points="889.33,-1197.23 894.72,-1188.1 884.82,-1191.88 889.33,-1197.23"/>
</g>
<!-- 38 -->
<g id="node39" class="node">
<title>38</title>
<polygon fill="none" stroke="black" points="828.5,-1188 667.5,-1188 667.5,-1152 828.5,-1152 828.5,-1188"/>
<text text-anchor="middle" x="748" y="-1166.3" font-family="Times,serif" font-size="14.00">datafusion&#45;substrait</text>
</g>
<!-- 37&#45;&gt;38 -->
<g id="edge57" class="edge">
<title>37&#45;&gt;38</title>
<path fill="none" stroke="black" d="M811.24,-1223.7C800.76,-1214.97 787.89,-1204.24 776.5,-1194.75"/>
<polygon fill="black" stroke="black" points="778.45,-1191.82 768.53,-1188.1 773.97,-1197.19 778.45,-1191.82"/>
</g>
<!-- 38&#45;&gt;27 -->
<g id="edge58" class="edge">
<title>38&#45;&gt;27</title>
<path fill="none" stroke="black" d="M768.52,-1151.7C778.87,-1142.97 791.59,-1132.24 802.84,-1122.75"/>
<polygon fill="black" stroke="black" points="805.33,-1125.23 810.72,-1116.1 800.82,-1119.88 805.33,-1125.23"/>
</g>
<!-- 39 -->
<g id="node40" class="node">
<title>39</title>
<polygon fill="none" stroke="black" points="1166.5,-1188 1001.5,-1188 1001.5,-1152 1166.5,-1152 1166.5,-1188"/>
<text text-anchor="middle" x="1084" y="-1166.3" font-family="Times,serif" font-size="14.00">datafusion&#45;wasmtest</text>
</g>
<!-- 39&#45;&gt;27 -->
<g id="edge60" class="edge">
<title>39&#45;&gt;27</title>
<path fill="none" stroke="black" d="M1022.43,-1151.97C981.17,-1140.55 927.27,-1125.63 887.17,-1114.54"/>
<polygon fill="black" stroke="black" points="887.87,-1111.1 877.29,-1111.81 886,-1117.85 887.87,-1111.1"/>
</g>
<!-- 40 -->
<g id="node41" class="node">
<title>40</title>
<polygon fill="none" stroke="black" points="649.5,-1188 536.5,-1188 536.5,-1152 649.5,-1152 649.5,-1188"/>
<text text-anchor="middle" x="593" y="-1166.3" font-family="Times,serif" font-size="14.00">datafusion&#45;cli</text>
</g>
<!-- 40&#45;&gt;27 -->
<g id="edge61" class="edge">
<title>40&#45;&gt;27</title>
<path fill="none" stroke="black" d="M649.7,-1152.32C687.57,-1141.19 737.15,-1126.6 774.89,-1115.5"/>
<polygon fill="black" stroke="black" points="776.1,-1118.79 784.71,-1112.62 774.13,-1112.08 776.1,-1118.79"/>
</g>
<!-- 41 -->
<g id="node42" class="node">
<title>41</title>
<polygon fill="none" stroke="black" points="437,-1260 273,-1260 273,-1224 437,-1224 437,-1260"/>
<text text-anchor="middle" x="355" y="-1238.3" font-family="Times,serif" font-size="14.00">datafusion&#45;examples</text>
</g>
<!-- 41&#45;&gt;34 -->
<g id="edge62" class="edge">
<title>41&#45;&gt;34</title>
<path fill="none" stroke="blue" d="M355,-1223.7C355,-1215.98 355,-1206.71 355,-1198.11"/>
<polygon fill="blue" stroke="blue" points="358.5,-1198.1 355,-1188.1 351.5,-1198.1 358.5,-1198.1"/>
</g>
<!-- 42 -->
<g id="node43" class="node">
<title>42</title>
<polygon fill="none" stroke="black" points="208,-1404 0,-1404 0,-1368 208,-1368 208,-1404"/>
<text text-anchor="middle" x="104" y="-1382.3" font-family="Times,serif" font-size="14.00">ffi_example_table_provider</text>
</g>
<!-- 43 -->
<g id="node44" class="node">
<title>43</title>
<polygon fill="none" stroke="black" points="280.5,-1332 119.5,-1332 119.5,-1296 280.5,-1296 280.5,-1332"/>
<text text-anchor="middle" x="200" y="-1310.3" font-family="Times,serif" font-size="14.00">ffi_module_interface</text>
</g>
<!-- 42&#45;&gt;43 -->
<g id="edge63" class="edge">
<title>42&#45;&gt;43</title>
<path fill="none" stroke="black" d="M127.73,-1367.7C139.94,-1358.8 154.99,-1347.82 168.18,-1338.2"/>
<polygon fill="black" stroke="black" points="170.52,-1340.82 176.54,-1332.1 166.4,-1335.17 170.52,-1340.82"/>
</g>
<!-- 43&#45;&gt;33 -->
<g id="edge64" class="edge">
<title>43&#45;&gt;33</title>
<path fill="none" stroke="black" d="M200,-1295.7C200,-1287.98 200,-1278.71 200,-1270.11"/>
<polygon fill="black" stroke="black" points="203.5,-1270.1 200,-1260.1 196.5,-1270.1 203.5,-1270.1"/>
</g>
<!-- 44 -->
<g id="node45" class="node">
<title>44</title>
<polygon fill="none" stroke="black" points="368,-1404 226,-1404 226,-1368 368,-1368 368,-1404"/>
<text text-anchor="middle" x="297" y="-1382.3" font-family="Times,serif" font-size="14.00">ffi_module_loader</text>
</g>
<!-- 44&#45;&gt;43 -->
<g id="edge65" class="edge">
<title>44&#45;&gt;43</title>
<path fill="none" stroke="black" d="M273.02,-1367.7C260.69,-1358.8 245.48,-1347.82 232.15,-1338.2"/>
<polygon fill="black" stroke="black" points="233.86,-1335.12 223.7,-1332.1 229.76,-1340.79 233.86,-1335.12"/>
</g>
<!-- 45 -->
<g id="node46" class="node">
<title>45</title>
<polygon fill="none" stroke="black" points="638.5,-1260 455.5,-1260 455.5,-1224 638.5,-1224 638.5,-1260"/>
<text text-anchor="middle" x="547" y="-1238.3" font-family="Times,serif" font-size="14.00">datafusion&#45;benchmarks</text>
</g>
<!-- 45&#45;&gt;34 -->
<g id="edge66" class="edge">
<title>45&#45;&gt;34</title>
<path fill="none" stroke="blue" d="M500.03,-1223.88C473.32,-1214.14 439.68,-1201.87 411.53,-1191.61"/>
<polygon fill="blue" stroke="blue" points="412.41,-1188.21 401.82,-1188.07 410.01,-1194.78 412.41,-1188.21"/>
</g>
</g>
</svg>
