<?xml version="1.0" encoding="UTF-8" standalone="no"?>
<!DOCTYPE svg PUBLIC "-//W3C//DTD SVG 1.1//EN"
 "http://www.w3.org/Graphics/SVG/1.1/DTD/svg11.dtd">
<!-- Generated by graphviz version 2.43.0 (0)
 -->
<!-- Title: %3 Pages: 1 -->
<svg width="1516pt" height="1484pt"
 viewBox="0.00 0.00 1515.55 1484.00" xmlns="http://www.w3.org/2000/svg" xmlns:xlink="http://www.w3.org/1999/xlink">
<g id="graph0" class="graph" transform="scale(1 1) rotate(0) translate(4 1480)">
<title>%3</title>
<polygon fill="white" stroke="transparent" points="-4,4 -4,-1480 1511.55,-1480 1511.55,4 -4,4"/>
<!-- 0 -->
<g id="node1" class="node">
<title>0</title>
<polygon fill="none" stroke="black" points="1095,-36 939,-36 939,0 1095,0 1095,-36"/>
<text text-anchor="middle" x="1017" y="-14.3" font-family="Times,serif" font-size="14.00">datafusion&#45;common</text>
</g>
<!-- 1 -->
<g id="node2" class="node">
<title>1</title>
<polygon fill="none" stroke="black" points="1097,-684 879,-684 879,-648 1097,-648 1097,-684"/>
<text text-anchor="middle" x="988" y="-662.3" font-family="Times,serif" font-size="14.00">datafusion&#45;common&#45;runtime</text>
</g>
<!-- 2 -->
<g id="node3" class="node">
<title>2</title>
<polygon fill="none" stroke="black" points="1212,-1044 1064,-1044 1064,-1008 1212,-1008 1212,-1044"/>
<text text-anchor="middle" x="1138" y="-1022.3" font-family="Times,serif" font-size="14.00">datafusion&#45;catalog</text>
</g>
<!-- 3 -->
<g id="node4" class="node">
<title>3</title>
<polygon fill="none" stroke="black" points="1197.5,-900 1022.5,-900 1022.5,-864 1197.5,-864 1197.5,-900"/>
<text text-anchor="middle" x="1110" y="-878.3" font-family="Times,serif" font-size="14.00">datafusion&#45;datasource</text>
</g>
<!-- 2&#45;&gt;3 -->
<g id="edge1" class="edge">
<title>2&#45;&gt;3</title>
<path fill="none" stroke="black" d="M1123.54,-1007.99C1113.3,-993.8 1102.6,-973.04 1110,-955"/>
</g>
<!-- 16 -->
<g id="node17" class="node">
<title>16</title>
<polygon fill="none" stroke="black" points="1243.5,-828 992.5,-828 992.5,-792 1243.5,-792 1243.5,-828"/>
<text text-anchor="middle" x="1118" y="-806.3" font-family="Times,serif" font-size="14.00">datafusion&#45;physical&#45;expr&#45;adapter</text>
</g>
<!-- 3&#45;&gt;16 -->
<g id="edge2" class="edge">
<title>3&#45;&gt;16</title>
<path fill="none" stroke="black" d="M1111.98,-863.7C1112.86,-855.98 1113.92,-846.71 1114.9,-838.11"/>
<polygon fill="black" stroke="black" points="1118.39,-838.44 1116.05,-828.1 1111.43,-837.64 1118.39,-838.44"/>
</g>
<!-- 20 -->
<g id="node21" class="node">
<title>20</title>
<polygon fill="none" stroke="black" points="955.5,-828 806.5,-828 806.5,-792 955.5,-792 955.5,-828"/>
<text text-anchor="middle" x="881" y="-806.3" font-family="Times,serif" font-size="14.00">datafusion&#45;session</text>
</g>
<!-- 3&#45;&gt;20 -->
<g id="edge3" class="edge">
<title>3&#45;&gt;20</title>
<path fill="none" stroke="black" d="M1054.27,-863.97C1021.86,-854.06 980.82,-841.51 946.82,-831.12"/>
<polygon fill="black" stroke="black" points="947.56,-827.69 936.98,-828.11 945.52,-834.38 947.56,-827.69"/>
</g>
<!-- 4 -->
<g id="node5" class="node">
<title>4</title>
<polygon fill="none" stroke="black" points="885.5,-468 720.5,-468 720.5,-432 885.5,-432 885.5,-468"/>
<text text-anchor="middle" x="803" y="-446.3" font-family="Times,serif" font-size="14.00">datafusion&#45;execution</text>
</g>
<!-- 5 -->
<g id="node6" class="node">
<title>5</title>
<polygon fill="none" stroke="black" points="867,-396 739,-396 739,-360 867,-360 867,-396"/>
<text text-anchor="middle" x="803" y="-374.3" font-family="Times,serif" font-size="14.00">datafusion&#45;expr</text>
</g>
<!-- 4&#45;&gt;5 -->
<g id="edge4" class="edge">
<title>4&#45;&gt;5</title>
<path fill="none" stroke="black" d="M803,-431.7C803,-423.98 803,-414.71 803,-406.11"/>
<polygon fill="black" stroke="black" points="806.5,-406.1 803,-396.1 799.5,-406.1 806.5,-406.1"/>
</g>
<!-- 6 -->
<g id="node7" class="node">
<title>6</title>
<polygon fill="none" stroke="black" points="1094.5,-324 973.5,-324 973.5,-288 1094.5,-288 1094.5,-324"/>
<text text-anchor="middle" x="1034" y="-302.3" font-family="Times,serif" font-size="14.00">datafusion&#45;doc</text>
</g>
<!-- 5&#45;&gt;6 -->
<g id="edge5" class="edge">
<title>5&#45;&gt;6</title>
<path fill="none" stroke="black" d="M859.21,-359.97C891.91,-350.06 933.3,-337.51 967.6,-327.12"/>
<polygon fill="black" stroke="black" points="968.98,-330.36 977.53,-324.11 966.95,-323.66 968.98,-330.36"/>
</g>
<!-- 8 -->
<g id="node9" class="node">
<title>8</title>
<polygon fill="none" stroke="black" points="955,-324 651,-324 651,-288 955,-288 955,-324"/>
<text text-anchor="middle" x="803" y="-302.3" font-family="Times,serif" font-size="14.00">datafusion&#45;functions&#45;aggregate&#45;common</text>
</g>
<!-- 5&#45;&gt;8 -->
<g id="edge6" class="edge">
<title>5&#45;&gt;8</title>
<path fill="none" stroke="black" d="M803,-359.7C803,-351.98 803,-342.71 803,-334.11"/>
<polygon fill="black" stroke="black" points="806.5,-334.1 803,-324.1 799.5,-334.1 806.5,-334.1"/>
</g>
<!-- 12 -->
<g id="node13" class="node">
<title>12</title>
<polygon fill="none" stroke="black" points="633,-324 347,-324 347,-288 633,-288 633,-324"/>
<text text-anchor="middle" x="490" y="-302.3" font-family="Times,serif" font-size="14.00">datafusion&#45;functions&#45;window&#45;common</text>
</g>
<!-- 5&#45;&gt;12 -->
<g id="edge7" class="edge">
<title>5&#45;&gt;12</title>
<path fill="none" stroke="black" d="M738.9,-362.67C691.86,-352.14 627.45,-337.74 575.95,-326.22"/>
<polygon fill="black" stroke="black" points="576.68,-322.8 566.16,-324.03 575.15,-329.63 576.68,-322.8"/>
</g>
<!-- 7 -->
<g id="node8" class="node">
<title>7</title>
<polygon fill="none" stroke="black" points="1113.5,-108 920.5,-108 920.5,-72 1113.5,-72 1113.5,-108"/>
<text text-anchor="middle" x="1017" y="-86.3" font-family="Times,serif" font-size="14.00">datafusion&#45;expr&#45;common</text>
</g>
<!-- 7&#45;&gt;0 -->
<g id="edge8" class="edge">
<title>7&#45;&gt;0</title>
<path fill="none" stroke="black" d="M1017,-71.7C1017,-63.98 1017,-54.71 1017,-46.11"/>
<polygon fill="black" stroke="black" points="1020.5,-46.1 1017,-36.1 1013.5,-46.1 1020.5,-46.1"/>
</g>
<!-- 9 -->
<g id="node10" class="node">
<title>9</title>
<polygon fill="none" stroke="black" points="931,-252 675,-252 675,-216 931,-216 931,-252"/>
<text text-anchor="middle" x="803" y="-230.3" font-family="Times,serif" font-size="14.00">datafusion&#45;physical&#45;expr&#45;common</text>
</g>
<!-- 8&#45;&gt;9 -->
<g id="edge9" class="edge">
<title>8&#45;&gt;9</title>
<path fill="none" stroke="black" d="M803,-287.7C803,-279.98 803,-270.71 803,-262.11"/>
<polygon fill="black" stroke="black" points="806.5,-262.1 803,-252.1 799.5,-262.1 806.5,-262.1"/>
</g>
<!-- 9&#45;&gt;7 -->
<g id="edge10" class="edge">
<title>9&#45;&gt;7</title>
<path fill="none" stroke="black" d="M841.12,-215.94C861.27,-206.34 886.09,-193.57 907,-180 937.33,-160.31 969.15,-133.84 990.72,-114.9"/>
<polygon fill="black" stroke="black" points="993.29,-117.29 998.45,-108.03 988.65,-112.05 993.29,-117.29"/>
</g>
<!-- 10 -->
<g id="node11" class="node">
<title>10</title>
<polygon fill="none" stroke="black" points="898,-180 708,-180 708,-144 898,-144 898,-180"/>
<text text-anchor="middle" x="803" y="-158.3" font-family="Times,serif" font-size="14.00">datafusion&#45;proto&#45;models</text>
</g>
<!-- 9&#45;&gt;10 -->
<g id="edge11" class="edge">
<title>9&#45;&gt;10</title>
<path fill="none" stroke="black" stroke-dasharray="1,5" d="M803,-215.7C803,-207.98 803,-198.71 803,-190.11"/>
<polygon fill="black" stroke="black" points="806.5,-190.1 803,-180.1 799.5,-190.1 806.5,-190.1"/>
</g>
<!-- 11 -->
<g id="node12" class="node">
<title>11</title>
<polygon fill="none" stroke="black" points="902.5,-108 703.5,-108 703.5,-72 902.5,-72 902.5,-108"/>
<text text-anchor="middle" x="803" y="-86.3" font-family="Times,serif" font-size="14.00">datafusion&#45;proto&#45;common</text>
</g>
<!-- 10&#45;&gt;11 -->
<g id="edge12" class="edge">
<title>10&#45;&gt;11</title>
<path fill="none" stroke="black" d="M803,-143.7C803,-135.98 803,-126.71 803,-118.11"/>
<polygon fill="black" stroke="black" points="806.5,-118.1 803,-108.1 799.5,-118.1 806.5,-118.1"/>
</g>
<!-- 11&#45;&gt;0 -->
<g id="edge13" class="edge">
<title>11&#45;&gt;0</title>
<path fill="none" stroke="black" d="M855.08,-71.97C885.24,-62.1 923.39,-49.62 955.08,-39.25"/>
<polygon fill="black" stroke="black" points="956.27,-42.55 964.69,-36.11 954.1,-35.89 956.27,-42.55"/>
</g>
<!-- 12&#45;&gt;9 -->
<g id="edge14" class="edge">
<title>12&#45;&gt;9</title>
<path fill="none" stroke="black" d="M566.17,-287.97C611.7,-277.78 669.67,-264.82 716.86,-254.26"/>
<polygon fill="black" stroke="black" points="717.77,-257.65 726.76,-252.05 716.24,-250.82 717.77,-257.65"/>
</g>
<!-- 13 -->
<g id="node14" class="node">
<title>13</title>
<polygon fill="none" stroke="black" points="857.5,-612 666.5,-612 666.5,-576 857.5,-576 857.5,-612"/>
<text text-anchor="middle" x="762" y="-590.3" font-family="Times,serif" font-size="14.00">datafusion&#45;physical&#45;expr</text>
</g>
<!-- 14 -->
<g id="node15" class="node">
<title>14</title>
<polygon fill="none" stroke="black" points="884,-540 722,-540 722,-504 884,-504 884,-540"/>
<text text-anchor="middle" x="803" y="-518.3" font-family="Times,serif" font-size="14.00">datafusion&#45;functions</text>
</g>
<!-- 13&#45;&gt;14 -->
<g id="edge15" class="edge">
<title>13&#45;&gt;14</title>
<path fill="none" stroke="blue" d="M772.13,-575.7C776.85,-567.64 782.56,-557.89 787.78,-548.98"/>
<polygon fill="blue" stroke="blue" points="790.95,-550.5 792.98,-540.1 784.91,-546.96 790.95,-550.5"/>
</g>
<!-- 14&#45;&gt;4 -->
<g id="edge16" class="edge">
<title>14&#45;&gt;4</title>
<path fill="none" stroke="black" d="M803,-503.7C803,-495.98 803,-486.71 803,-478.11"/>
<polygon fill="black" stroke="black" points="806.5,-478.1 803,-468.1 799.5,-478.1 806.5,-478.1"/>
</g>
<!-- 15 -->
<g id="node16" class="node">
<title>15</title>
<polygon fill="none" stroke="#00cd00" points="1078,-396 930,-396 930,-360 1078,-360 1078,-396"/>
<text text-anchor="middle" x="1004" y="-374.3" font-family="Times,serif" font-size="14.00">datafusion&#45;macros</text>
</g>
<!-- 14&#45;&gt;15 -->
<g id="edge17" class="edge">
<title>14&#45;&gt;15</title>
<path fill="none" stroke="#00cd00" d="M835.72,-503.84C853.65,-494.02 876.03,-481.08 895,-468 924.43,-447.71 955.82,-421.54 977.32,-402.84"/>
<polygon fill="#00cd00" stroke="#00cd00" points="979.84,-405.29 985.05,-396.07 975.22,-400.03 979.84,-405.29"/>
</g>
<!-- 15&#45;&gt;6 -->
<g id="edge18" class="edge">
<title>15&#45;&gt;6</title>
<path fill="none" stroke="#00cd00" d="M1011.42,-359.7C1014.79,-351.81 1018.87,-342.3 1022.62,-333.55"/>
<polygon fill="#00cd00" stroke="#00cd00" points="1025.95,-334.67 1026.67,-324.1 1019.51,-331.92 1025.95,-334.67"/>
</g>
<!-- 16&#45;&gt;13 -->
<g id="edge19" class="edge">
<title>16&#45;&gt;13</title>
<path fill="none" stroke="black" d="M1122.85,-791.76C1130.89,-759.06 1142.72,-687.72 1106,-648 1074.5,-613.93 956.99,-601.66 868,-597.3"/>
<polygon fill="black" stroke="black" points="868,-593.8 857.84,-596.83 867.67,-600.79 868,-593.8"/>
</g>
<!-- 17 -->
<g id="node18" class="node">
<title>17</title>
<polygon fill="none" stroke="black" points="957,-756 767,-756 767,-720 957,-720 957,-756"/>
<text text-anchor="middle" x="862" y="-734.3" font-family="Times,serif" font-size="14.00">datafusion&#45;physical&#45;plan</text>
</g>
<!-- 17&#45;&gt;1 -->
<g id="edge20" class="edge">
<title>17&#45;&gt;1</title>
<path fill="none" stroke="black" d="M892.82,-719.88C909.45,-710.64 930.16,-699.13 948.02,-689.21"/>
<polygon fill="black" stroke="black" points="950.02,-692.11 957.06,-684.19 946.62,-685.99 950.02,-692.11"/>
</g>
<!-- 18 -->
<g id="node19" class="node">
<title>18</title>
<polygon fill="none" stroke="black" points="860.5,-684 621.5,-684 621.5,-648 860.5,-648 860.5,-684"/>
<text text-anchor="middle" x="741" y="-662.3" font-family="Times,serif" font-size="14.00">datafusion&#45;functions&#45;aggregate</text>
</g>
<!-- 17&#45;&gt;18 -->
<g id="edge21" class="edge">
<title>17&#45;&gt;18</title>
<path fill="none" stroke="blue" d="M832.4,-719.88C816.43,-710.64 796.54,-699.13 779.39,-689.21"/>
<polygon fill="blue" stroke="blue" points="781.12,-686.17 770.71,-684.19 777.62,-692.23 781.12,-686.17"/>
</g>
<!-- 19 -->
<g id="node20" class="node">
<title>19</title>
<polygon fill="none" stroke="black" points="603.5,-684 382.5,-684 382.5,-648 603.5,-648 603.5,-684"/>
<text text-anchor="middle" x="493" y="-662.3" font-family="Times,serif" font-size="14.00">datafusion&#45;functions&#45;window</text>
</g>
<!-- 17&#45;&gt;19 -->
<g id="edge22" class="edge">
<title>17&#45;&gt;19</title>
<path fill="none" stroke="blue" d="M772.2,-719.97C717.97,-709.68 648.75,-696.55 592.81,-685.93"/>
<polygon fill="blue" stroke="blue" points="593.36,-682.48 582.88,-684.05 592.05,-689.35 593.36,-682.48"/>
</g>
<!-- 18&#45;&gt;13 -->
<g id="edge23" class="edge">
<title>18&#45;&gt;13</title>
<path fill="none" stroke="black" d="M746.19,-647.7C748.53,-639.9 751.35,-630.51 753.95,-621.83"/>
<polygon fill="black" stroke="black" points="757.35,-622.69 756.87,-612.1 750.64,-620.68 757.35,-622.69"/>
</g>
<!-- 19&#45;&gt;13 -->
<g id="edge24" class="edge">
<title>19&#45;&gt;13</title>
<path fill="none" stroke="black" d="M558.46,-647.97C597.11,-637.91 646.19,-625.14 686.47,-614.65"/>
<polygon fill="black" stroke="black" points="687.45,-618.02 696.25,-612.11 685.69,-611.24 687.45,-618.02"/>
</g>
<!-- 20&#45;&gt;17 -->
<g id="edge25" class="edge">
<title>20&#45;&gt;17</title>
<path fill="none" stroke="black" d="M876.3,-791.7C874.19,-783.9 871.64,-774.51 869.28,-765.83"/>
<polygon fill="black" stroke="black" points="872.64,-764.84 866.64,-756.1 865.88,-766.67 872.64,-764.84"/>
</g>
<!-- 21 -->
<g id="node22" class="node">
<title>21</title>
<polygon fill="none" stroke="black" points="877.5,-1116 680.5,-1116 680.5,-1080 877.5,-1080 877.5,-1116"/>
<text text-anchor="middle" x="779" y="-1094.3" font-family="Times,serif" font-size="14.00">datafusion&#45;catalog&#45;listing</text>
</g>
<!-- 21&#45;&gt;2 -->
<g id="edge26" class="edge">
<title>21&#45;&gt;2</title>
<path fill="none" stroke="black" d="M869.17,-1079.97C920.59,-1070.2 986.5,-1057.55 1053.85,-1044.22"/>
<polygon fill="black" stroke="black" points="1054.67,-1047.62 1063.8,-1042.25 1053.31,-1040.76 1054.67,-1047.62"/>
</g>
<!-- 22 -->
<g id="node23" class="node">
<title>22</title>
<polygon fill="none" stroke="black" points="778,-1044 542,-1044 542,-1008 778,-1008 778,-1044"/>
<text text-anchor="middle" x="660" y="-1022.3" font-family="Times,serif" font-size="14.00">datafusion&#45;datasource&#45;parquet</text>
</g>
<!-- 21&#45;&gt;22 -->
<g id="edge27" class="edge">
<title>21&#45;&gt;22</title>
<path fill="none" stroke="blue" d="M749.89,-1079.88C734.33,-1070.72 714.98,-1059.34 698.22,-1049.48"/>
<polygon fill="blue" stroke="blue" points="699.62,-1046.24 689.22,-1044.19 696.07,-1052.28 699.62,-1046.24"/>
</g>
<!-- 23 -->
<g id="node24" class="node">
<title>23</title>
<polygon fill="none" stroke="black" points="736,-972 584,-972 584,-936 736,-936 736,-972"/>
<text text-anchor="middle" x="660" y="-950.3" font-family="Times,serif" font-size="14.00">datafusion&#45;pruning</text>
</g>
<!-- 22&#45;&gt;23 -->
<g id="edge28" class="edge">
<title>22&#45;&gt;23</title>
<path fill="none" stroke="black" d="M660,-1007.7C660,-999.98 660,-990.71 660,-982.11"/>
<polygon fill="black" stroke="black" points="663.5,-982.1 660,-972.1 656.5,-982.1 663.5,-982.1"/>
</g>
<!-- 23&#45;&gt;3 -->
<g id="edge29" class="edge">
<title>23&#45;&gt;3</title>
<path fill="none" stroke="black" d="M736.08,-941.17C812.18,-929.33 929.54,-911.07 1012.45,-898.17"/>
<polygon fill="black" stroke="black" points="1013.04,-901.62 1022.38,-896.63 1011.96,-894.71 1013.04,-901.62"/>
</g>
<!-- 24 -->
<g id="node25" class="node">
<title>24</title>
<polygon fill="none" stroke="black" points="767.5,-900 552.5,-900 552.5,-864 767.5,-864 767.5,-900"/>
<text text-anchor="middle" x="660" y="-878.3" font-family="Times,serif" font-size="14.00">datafusion&#45;functions&#45;nested</text>
</g>
<!-- 23&#45;&gt;24 -->
<g id="edge30" class="edge">
<title>23&#45;&gt;24</title>
<path fill="none" stroke="blue" d="M660,-935.7C660,-927.98 660,-918.71 660,-910.11"/>
<polygon fill="blue" stroke="blue" points="663.5,-910.1 660,-900.1 656.5,-910.1 663.5,-910.1"/>
</g>
<!-- 24&#45;&gt;18 -->
<g id="edge31" class="edge">
<title>24&#45;&gt;18</title>
<path fill="none" stroke="black" d="M666.49,-863.85C680.56,-826.68 713.96,-738.44 730.85,-693.82"/>
<polygon fill="black" stroke="black" points="734.21,-694.82 734.48,-684.23 727.66,-692.35 734.21,-694.82"/>
</g>
<!-- 25 -->
<g id="node26" class="node">
<title>25</title>
<polygon fill="none" stroke="black" points="1028.5,-972 807.5,-972 807.5,-936 1028.5,-936 1028.5,-972"/>
<text text-anchor="middle" x="918" y="-950.3" font-family="Times,serif" font-size="14.00">datafusion&#45;datasource&#45;arrow</text>
</g>
<!-- 25&#45;&gt;3 -->
<g id="edge32" class="edge">
<title>25&#45;&gt;3</title>
<path fill="none" stroke="black" d="M964.97,-935.88C991.68,-926.14 1025.32,-913.87 1053.47,-903.61"/>
<polygon fill="black" stroke="black" points="1054.99,-906.78 1063.18,-900.07 1052.59,-900.21 1054.99,-906.78"/>
</g>
<!-- 26 -->
<g id="node27" class="node">
<title>26</title>
<polygon fill="none" stroke="black" points="1045.5,-1044 834.5,-1044 834.5,-1008 1045.5,-1008 1045.5,-1044"/>
<text text-anchor="middle" x="940" y="-1022.3" font-family="Times,serif" font-size="14.00">datafusion&#45;datasource&#45;avro</text>
</g>
<!-- 26&#45;&gt;3 -->
<g id="edge33" class="edge">
<title>26&#45;&gt;3</title>
<path fill="none" stroke="black" d="M1045.75,-1009.24C1073.5,-999.03 1098.8,-982.32 1110,-955"/>
<path fill="none" stroke="black" d="M1110,-953C1115.49,-939.6 1115.87,-923.51 1114.71,-910.14"/>
<polygon fill="black" stroke="black" points="1118.17,-909.61 1113.51,-900.1 1111.22,-910.44 1118.17,-909.61"/>
</g>
<!-- 27 -->
<g id="node28" class="node">
<title>27</title>
<polygon fill="none" stroke="black" points="1341.5,-972 1138.5,-972 1138.5,-936 1341.5,-936 1341.5,-972"/>
<text text-anchor="middle" x="1240" y="-950.3" font-family="Times,serif" font-size="14.00">datafusion&#45;datasource&#45;csv</text>
</g>
<!-- 27&#45;&gt;3 -->
<g id="edge34" class="edge">
<title>27&#45;&gt;3</title>
<path fill="none" stroke="black" d="M1208.2,-935.88C1190.89,-926.55 1169.28,-914.92 1150.74,-904.94"/>
<polygon fill="black" stroke="black" points="1152.39,-901.85 1141.92,-900.19 1149.07,-908.01 1152.39,-901.85"/>
</g>
<!-- 28 -->
<g id="node29" class="node">
<title>28</title>
<polygon fill="none" stroke="black" points="1477.5,-1044 1268.5,-1044 1268.5,-1008 1477.5,-1008 1477.5,-1044"/>
<text text-anchor="middle" x="1373" y="-1022.3" font-family="Times,serif" font-size="14.00">datafusion&#45;datasource&#45;json</text>
</g>
<!-- 28&#45;&gt;3 -->
<g id="edge35" class="edge">
<title>28&#45;&gt;3</title>
<path fill="none" stroke="black" d="M1373.78,-1007.65C1373.68,-987.55 1370.26,-954.77 1351,-936 1330.41,-915.94 1265.19,-902.35 1207.78,-893.95"/>
<polygon fill="black" stroke="black" points="1207.93,-890.44 1197.54,-892.5 1206.94,-897.37 1207.93,-890.44"/>
</g>
<!-- 29 -->
<g id="node30" class="node">
<title>29</title>
<polygon fill="none" stroke="black" points="888,-1188 796,-1188 796,-1152 888,-1152 888,-1188"/>
<text text-anchor="middle" x="842" y="-1166.3" font-family="Times,serif" font-size="14.00">datafusion</text>
</g>
<!-- 29&#45;&gt;21 -->
<g id="edge36" class="edge">
<title>29&#45;&gt;21</title>
<path fill="none" stroke="black" d="M826.43,-1151.7C818.8,-1143.22 809.48,-1132.86 801.12,-1123.58"/>
<polygon fill="black" stroke="black" points="803.69,-1121.2 794.39,-1116.1 798.48,-1125.88 803.69,-1121.2"/>
</g>
<!-- 29&#45;&gt;25 -->
<g id="edge37" class="edge">
<title>29&#45;&gt;25</title>
<path fill="none" stroke="black" d="M868.82,-1151.88C884.83,-1139.52 902.69,-1121.15 906,-1099"/>
<path fill="none" stroke="black" d="M906,-1097C912.31,-1054.82 847.15,-1081.04 826,-1044 818.07,-1030.11 817.99,-1021.85 826,-1008 833.57,-994.9 845.74,-984.76 858.78,-977.02"/>
<polygon fill="black" stroke="black" points="860.81,-979.9 867.91,-972.03 857.45,-973.75 860.81,-979.9"/>
</g>
<!-- 29&#45;&gt;26 -->
<g id="edge38" class="edge">
<title>29&#45;&gt;26</title>
<path fill="none" stroke="black" stroke-dasharray="1,5" d="M906,-1097C908.33,-1081.41 915.6,-1065.49 922.82,-1052.78"/>
<polygon fill="black" stroke="black" points="925.86,-1054.52 928,-1044.14 919.86,-1050.92 925.86,-1054.52"/>
</g>
<!-- 29&#45;&gt;27 -->
<g id="edge39" class="edge">
<title>29&#45;&gt;27</title>
<path fill="none" stroke="black" d="M888.09,-1166.35C1011.32,-1158.81 1341.23,-1135.37 1373,-1099"/>
<path fill="none" stroke="black" d="M1373,-1097C1409.49,-1055.22 1294.74,-1087.25 1260,-1044 1246.09,-1026.68 1241.42,-1001.63 1240.04,-982.51"/>
<polygon fill="black" stroke="black" points="1243.53,-982.14 1239.57,-972.31 1236.53,-982.47 1243.53,-982.14"/>
</g>
<!-- 29&#45;&gt;28 -->
<g id="edge40" class="edge">
<title>29&#45;&gt;28</title>
<path fill="none" stroke="black" d="M1373,-1097C1383.04,-1085.51 1383.23,-1068.46 1380.82,-1054.06"/>
<polygon fill="black" stroke="black" points="1384.22,-1053.21 1378.71,-1044.16 1377.37,-1054.67 1384.22,-1053.21"/>
</g>
<!-- 30 -->
<g id="node31" class="node">
<title>30</title>
<polygon fill="none" stroke="black" points="1205.5,-1116 1002.5,-1116 1002.5,-1080 1205.5,-1080 1205.5,-1116"/>
<text text-anchor="middle" x="1104" y="-1094.3" font-family="Times,serif" font-size="14.00">datafusion&#45;functions&#45;table</text>
</g>
<!-- 29&#45;&gt;30 -->
<g id="edge41" class="edge">
<title>29&#45;&gt;30</title>
<path fill="none" stroke="black" d="M888.24,-1156.65C927.52,-1146.15 984.61,-1130.9 1030.21,-1118.72"/>
<polygon fill="black" stroke="black" points="1031.29,-1122.05 1040.05,-1116.09 1029.48,-1115.29 1031.29,-1122.05"/>
</g>
<!-- 31 -->
<g id="node32" class="node">
<title>31</title>
<polygon fill="none" stroke="black" points="417,-1116 253,-1116 253,-1080 417,-1080 417,-1116"/>
<text text-anchor="middle" x="335" y="-1094.3" font-family="Times,serif" font-size="14.00">datafusion&#45;optimizer</text>
</g>
<!-- 29&#45;&gt;31 -->
<g id="edge42" class="edge">
<title>29&#45;&gt;31</title>
<path fill="none" stroke="black" d="M795.71,-1163.99C720.57,-1155.66 567.19,-1137.86 427.35,-1116.17"/>
<polygon fill="black" stroke="black" points="427.72,-1112.68 417.3,-1114.6 426.64,-1119.6 427.72,-1112.68"/>
</g>
<!-- 33 -->
<g id="node34" class="node">
<title>33</title>
<polygon fill="none" stroke="black" points="662.5,-1116 435.5,-1116 435.5,-1080 662.5,-1080 662.5,-1116"/>
<text text-anchor="middle" x="549" y="-1094.3" font-family="Times,serif" font-size="14.00">datafusion&#45;physical&#45;optimizer</text>
</g>
<!-- 29&#45;&gt;33 -->
<g id="edge43" class="edge">
<title>29&#45;&gt;33</title>
<path fill="none" stroke="black" d="M795.9,-1157.99C751.52,-1147.38 683.46,-1131.12 630.03,-1118.36"/>
<polygon fill="black" stroke="black" points="630.77,-1114.94 620.23,-1116.02 629.15,-1121.75 630.77,-1114.94"/>
</g>
<!-- 34 -->
<g id="node35" class="node">
<title>34</title>
<polygon fill="none" stroke="black" points="1389,-756 1309,-756 1309,-720 1389,-720 1389,-756"/>
<text text-anchor="middle" x="1349" y="-734.3" font-family="Times,serif" font-size="14.00">test&#45;utils</text>
</g>
<!-- 29&#45;&gt;34 -->
<g id="edge45" class="edge">
<title>29&#45;&gt;34</title>
<path fill="none" stroke="blue" d="M1373,-1097C1410.82,-1055.87 1452.17,-1087.69 1487,-1044 1512.21,-1012.37 1506,-995.45 1506,-955 1506,-955 1506,-955 1506,-881 1506,-822.03 1444.33,-781.2 1398.29,-758.94"/>
<polygon fill="blue" stroke="blue" points="1399.56,-755.67 1389.02,-754.6 1396.6,-762.01 1399.56,-755.67"/>
</g>
<!-- 30&#45;&gt;2 -->
<g id="edge46" class="edge">
<title>30&#45;&gt;2</title>
<path fill="none" stroke="black" d="M1112.4,-1079.7C1116.27,-1071.73 1120.95,-1062.1 1125.24,-1053.26"/>
<polygon fill="black" stroke="black" points="1128.47,-1054.63 1129.69,-1044.1 1122.17,-1051.57 1128.47,-1054.63"/>
</g>
<!-- 32 -->
<g id="node33" class="node">
<title>32</title>
<polygon fill="none" stroke="black" points="551.5,-972 434.5,-972 434.5,-936 551.5,-936 551.5,-972"/>
<text text-anchor="middle" x="493" y="-950.3" font-family="Times,serif" font-size="14.00">datafusion&#45;sql</text>
</g>
<!-- 31&#45;&gt;32 -->
<g id="edge47" class="edge">
<title>31&#45;&gt;32</title>
<path fill="none" stroke="blue" d="M354.06,-1079.87C382.05,-1054.71 434.41,-1007.65 466.25,-979.04"/>
<polygon fill="blue" stroke="blue" points="468.78,-981.48 473.87,-972.19 464.1,-976.27 468.78,-981.48"/>
</g>
<!-- 32&#45;&gt;19 -->
<g id="edge50" class="edge">
<title>32&#45;&gt;19</title>
<path fill="none" stroke="blue" d="M493,-935.97C493,-888.29 493,-753.18 493,-694.63"/>
<polygon fill="blue" stroke="blue" points="496.5,-694.31 493,-684.31 489.5,-694.31 496.5,-694.31"/>
</g>
<!-- 32&#45;&gt;24 -->
<g id="edge48" class="edge">
<title>32&#45;&gt;24</title>
<path fill="none" stroke="black" d="M533.85,-935.88C556.78,-926.26 585.58,-914.19 609.87,-904.01"/>
<polygon fill="black" stroke="black" points="611.41,-907.16 619.28,-900.07 608.7,-900.71 611.41,-907.16"/>
</g>
<!-- 33&#45;&gt;23 -->
<g id="edge51" class="edge">
<title>33&#45;&gt;23</title>
<path fill="none" stroke="black" d="M539.1,-1079.78C529.57,-1060.67 518.55,-1029.69 533,-1008 543,-992.99 558.16,-982.22 574.55,-974.5"/>
<polygon fill="black" stroke="black" points="575.97,-977.7 583.76,-970.51 573.19,-971.27 575.97,-977.7"/>
</g>
<!-- 34&#45;&gt;0 -->
<g id="edge52" class="edge">
<title>34&#45;&gt;0</title>
<path fill="none" stroke="black" d="M1327.9,-719.68C1300.46,-695.08 1256,-647.16 1256,-595 1256,-595 1256,-595 1256,-161 1256,-88.32 1173.29,-52.01 1105.19,-34.43"/>
<polygon fill="black" stroke="black" points="1105.81,-30.98 1095.26,-31.97 1104.12,-37.77 1105.81,-30.98"/>
</g>
<!-- 35 -->
<g id="node36" class="node">
<title>35</title>
<polygon fill="none" stroke="black" points="255,-1332 145,-1332 145,-1296 255,-1296 255,-1332"/>
<text text-anchor="middle" x="200" y="-1310.3" font-family="Times,serif" font-size="14.00">datafusion&#45;ffi</text>
</g>
<!-- 36 -->
<g id="node37" class="node">
<title>36</title>
<polygon fill="none" stroke="black" points="518,-1260 384,-1260 384,-1224 518,-1224 518,-1260"/>
<text text-anchor="middle" x="451" y="-1238.3" font-family="Times,serif" font-size="14.00">datafusion&#45;proto</text>
</g>
<!-- 35&#45;&gt;36 -->
<g id="edge53" class="edge">
<title>35&#45;&gt;36</title>
<path fill="none" stroke="black" d="M255.08,-1297.64C291.8,-1287.4 340.41,-1273.84 380.02,-1262.8"/>
<polygon fill="black" stroke="black" points="381.19,-1266.1 389.88,-1260.04 379.31,-1259.36 381.19,-1266.1"/>
</g>
<!-- 36&#45;&gt;29 -->
<g id="edge54" class="edge">
<title>36&#45;&gt;29</title>
<path fill="none" stroke="blue" d="M518.22,-1228.97C593.76,-1215.44 715.06,-1193.73 785.78,-1181.07"/>
<polygon fill="blue" stroke="blue" points="786.61,-1184.47 795.83,-1179.27 785.37,-1177.58 786.61,-1184.47"/>
</g>
<!-- 37 -->
<g id="node38" class="node">
<title>37</title>
<polygon fill="none" stroke="black" points="743,-1260 607,-1260 607,-1224 743,-1224 743,-1260"/>
<text text-anchor="middle" x="675" y="-1238.3" font-family="Times,serif" font-size="14.00">datafusion&#45;spark</text>
</g>
<!-- 37&#45;&gt;29 -->
<g id="edge55" class="edge">
<title>37&#45;&gt;29</title>
<path fill="none" stroke="black" stroke-dasharray="1,5" d="M715.85,-1223.88C738.78,-1214.26 767.58,-1202.19 791.87,-1192.01"/>
<polygon fill="black" stroke="black" points="793.41,-1195.16 801.28,-1188.07 790.7,-1188.71 793.41,-1195.16"/>
</g>
<!-- 38 -->
<g id="node39" class="node">
<title>38</title>
<polygon fill="none" stroke="black" points="835.5,-1332 656.5,-1332 656.5,-1296 835.5,-1296 835.5,-1332"/>
<text text-anchor="middle" x="746" y="-1310.3" font-family="Times,serif" font-size="14.00">datafusion&#45;sqllogictest</text>
</g>
<!-- 38&#45;&gt;37 -->
<g id="edge57" class="edge">
<title>38&#45;&gt;37</title>
<path fill="none" stroke="black" d="M728.45,-1295.7C719.77,-1287.14 709.14,-1276.66 699.65,-1267.3"/>
<polygon fill="black" stroke="black" points="701.93,-1264.63 692.35,-1260.1 697.01,-1269.62 701.93,-1264.63"/>
</g>
<!-- 39 -->
<g id="node40" class="node">
<title>39</title>
<polygon fill="none" stroke="black" points="922.5,-1260 761.5,-1260 761.5,-1224 922.5,-1224 922.5,-1260"/>
<text text-anchor="middle" x="842" y="-1238.3" font-family="Times,serif" font-size="14.00">datafusion&#45;substrait</text>
</g>
<!-- 39&#45;&gt;29 -->
<g id="edge58" class="edge">
<title>39&#45;&gt;29</title>
<path fill="none" stroke="black" d="M842,-1223.7C842,-1215.98 842,-1206.71 842,-1198.11"/>
<polygon fill="black" stroke="black" points="845.5,-1198.1 842,-1188.1 838.5,-1198.1 845.5,-1198.1"/>
</g>
<!-- 40 -->
<g id="node41" class="node">
<title>40</title>
<polygon fill="none" stroke="black" points="1105.5,-1260 940.5,-1260 940.5,-1224 1105.5,-1224 1105.5,-1260"/>
<text text-anchor="middle" x="1023" y="-1238.3" font-family="Times,serif" font-size="14.00">datafusion&#45;wasmtest</text>
</g>
<!-- 40&#45;&gt;29 -->
<g id="edge60" class="edge">
<title>40&#45;&gt;29</title>
<path fill="none" stroke="black" d="M978.72,-1223.88C953.65,-1214.18 922.1,-1201.98 895.63,-1191.74"/>
<polygon fill="black" stroke="black" points="896.72,-1188.41 886.13,-1188.07 894.2,-1194.94 896.72,-1188.41"/>
</g>
<!-- 41 -->
<g id="node42" class="node">
<title>41</title>
<polygon fill="none" stroke="black" points="1236.5,-1260 1123.5,-1260 1123.5,-1224 1236.5,-1224 1236.5,-1260"/>
<text text-anchor="middle" x="1180" y="-1238.3" font-family="Times,serif" font-size="14.00">datafusion&#45;cli</text>
</g>
<!-- 41&#45;&gt;29 -->
<g id="edge61" class="edge">
<title>41&#45;&gt;29</title>
<path fill="none" stroke="black" d="M1123.33,-1225.95C1120.52,-1225.28 1117.73,-1224.62 1115,-1224 1040.32,-1207 953.37,-1190.72 898.03,-1180.79"/>
<polygon fill="black" stroke="black" points="898.54,-1177.33 888.08,-1179.02 897.31,-1184.22 898.54,-1177.33"/>
</g>
<!-- 42 -->
<g id="node43" class="node">
<title>42</title>
<polygon fill="none" stroke="black" points="437,-1332 273,-1332 273,-1296 437,-1296 437,-1332"/>
<text text-anchor="middle" x="355" y="-1310.3" font-family="Times,serif" font-size="14.00">datafusion&#45;examples</text>
</g>
<!-- 42&#45;&gt;36 -->
<g id="edge62" class="edge">
<title>42&#45;&gt;36</title>
<path fill="none" stroke="blue" d="M378.73,-1295.7C390.94,-1286.8 405.99,-1275.82 419.18,-1266.2"/>
<polygon fill="blue" stroke="blue" points="421.52,-1268.82 427.54,-1260.1 417.4,-1263.17 421.52,-1268.82"/>
</g>
<!-- 43 -->
<g id="node44" class="node">
<title>43</title>
<polygon fill="none" stroke="black" points="208,-1476 0,-1476 0,-1440 208,-1440 208,-1476"/>
<text text-anchor="middle" x="104" y="-1454.3" font-family="Times,serif" font-size="14.00">ffi_example_table_provider</text>
</g>
<!-- 44 -->
<g id="node45" class="node">
<title>44</title>
<polygon fill="none" stroke="black" points="280.5,-1404 119.5,-1404 119.5,-1368 280.5,-1368 280.5,-1404"/>
<text text-anchor="middle" x="200" y="-1382.3" font-family="Times,serif" font-size="14.00">ffi_module_interface</text>
</g>
<!-- 43&#45;&gt;44 -->
<g id="edge63" class="edge">
<title>43&#45;&gt;44</title>
<path fill="none" stroke="black" d="M127.73,-1439.7C139.94,-1430.8 154.99,-1419.82 168.18,-1410.2"/>
<polygon fill="black" stroke="black" points="170.52,-1412.82 176.54,-1404.1 166.4,-1407.17 170.52,-1412.82"/>
</g>
<!-- 44&#45;&gt;35 -->
<g id="edge64" class="edge">
<title>44&#45;&gt;35</title>
<path fill="none" stroke="black" d="M200,-1367.7C200,-1359.98 200,-1350.71 200,-1342.11"/>
<polygon fill="black" stroke="black" points="203.5,-1342.1 200,-1332.1 196.5,-1342.1 203.5,-1342.1"/>
</g>
<!-- 45 -->
<g id="node46" class="node">
<title>45</title>
<polygon fill="none" stroke="black" points="368,-1476 226,-1476 226,-1440 368,-1440 368,-1476"/>
<text text-anchor="middle" x="297" y="-1454.3" font-family="Times,serif" font-size="14.00">ffi_module_loader</text>
</g>
<!-- 45&#45;&gt;44 -->
<g id="edge65" class="edge">
<title>45&#45;&gt;44</title>
<path fill="none" stroke="black" d="M273.02,-1439.7C260.69,-1430.8 245.48,-1419.82 232.15,-1410.2"/>
<polygon fill="black" stroke="black" points="233.86,-1407.12 223.7,-1404.1 229.76,-1412.79 233.86,-1407.12"/>
</g>
<!-- 46 -->
<g id="node47" class="node">
<title>46</title>
<polygon fill="none" stroke="black" points="638.5,-1332 455.5,-1332 455.5,-1296 638.5,-1296 638.5,-1332"/>
<text text-anchor="middle" x="547" y="-1310.3" font-family="Times,serif" font-size="14.00">datafusion&#45;benchmarks</text>
</g>
<!-- 46&#45;&gt;36 -->
<g id="edge66" class="edge">
<title>46&#45;&gt;36</title>
<path fill="none" stroke="blue" d="M523.27,-1295.7C511.06,-1286.8 496.01,-1275.82 482.82,-1266.2"/>
<polygon fill="blue" stroke="blue" points="484.6,-1263.17 474.46,-1260.1 480.48,-1268.82 484.6,-1263.17"/>
</g>
</g>
</svg>
