<svg width="801" height="168" viewBox="0 0 801 168" fill="none" xmlns="http://www.w3.org/2000/svg">
<g clip-path="url(#clip0_1_181)">
<path fill-rule="evenodd" clip-rule="evenodd" d="M76.1297 168C88.4597 168 99.6097 158.25 107.58 142.55C127.23 144.6 143.09 139.99 149.76 128.51C156.29 117.25 152.65 101.68 141.58 86.09C152.36 70.67 155.85 55.32 149.39 44.19C143.01 33.19 128.19 28.5 109.69 29.92C101.65 11.62 89.5997 0 76.1297 0C62.6597 0 50.4997 11.73 42.4497 30.18C24.3497 28.97 9.87966 33.68 3.59966 44.51C-2.81034 55.56 0.589656 70.78 11.1897 86.09C0.299656 101.57 -3.24034 117.01 3.23966 128.18C9.80966 139.5 25.3097 144.13 44.5597 142.31C52.5397 158.15 63.7297 168 76.1297 168ZM52.7197 141.19C59.5097 154.21 68.6197 162.18 78.6397 162.18C88.6597 162.18 97.6397 154.63 104.76 142.22C95.7497 141.01 86.0297 138.46 76.0797 134.58C68.0497 137.65 60.1797 139.86 52.7197 141.19ZM65.0697 129.77C59.6397 131.52 54.3497 132.84 49.3097 133.72C47.3697 128.87 45.6997 123.54 44.3597 117.82C47.6797 120.07 51.1497 122.25 54.7497 124.32C58.1797 126.29 61.6197 128.11 65.0597 129.77H65.0697ZM76.1197 125.68C82.0597 123.2 88.0897 120.24 94.0797 116.79C102.76 111.8 110.61 106.25 117.41 100.43C118.01 95.13 118.33 89.64 118.33 84C118.33 76.79 117.81 69.8 116.84 63.17C111.11 58.53 104.73 54.12 97.7797 50.13C90.5497 45.98 83.2397 42.57 76.0697 39.91C69.1797 42.52 62.1597 45.82 55.2197 49.81C50.8597 52.32 46.7097 54.99 42.8197 57.78C41.3997 65.98 40.6297 74.8 40.6297 84C40.6297 91.65 41.1597 99.05 42.1597 106.04C47.2997 109.94 52.9197 113.66 58.9297 117.12C64.6597 120.41 70.4297 123.27 76.1197 125.68ZM87.1297 129.83C90.8397 128.07 94.5497 126.12 98.2497 124C104.42 120.45 110.18 116.61 115.48 112.58C113.79 120.73 111.42 128.22 108.52 134.76C101.82 133.95 94.6097 132.3 87.1297 129.83ZM117.71 110.84C116.16 119.65 113.87 127.8 110.98 135.03C127.49 136.56 140.52 132.79 145.95 123.44C151.17 114.43 148.57 101.58 140 88.28C134.26 96.01 126.71 103.7 117.71 110.84ZM136.56 79.61C145.46 66.59 148.33 53.99 143.08 44.93C137.99 36.16 126.02 31.96 110.76 32.43C114.3 41.14 116.97 51.23 118.5 62.2C125.46 67.76 131.53 73.64 136.55 79.61H136.56ZM108.21 32.55C111.86 40.6 114.7 50.11 116.43 60.57C110.98 56.37 105.01 52.37 98.6097 48.69C91.9597 44.87 85.2397 41.62 78.6197 38.96C89.0597 35.24 99.1497 33.11 108.2 32.54L108.21 32.55ZM107.08 30.16C97.4397 31.18 86.8897 33.79 76.0797 37.98C67.2997 34.65 58.7097 32.35 50.6497 31.1C57.5997 15.56 67.5697 5.83 78.6397 5.83C89.7097 5.83 99.7197 15.18 107.08 30.16ZM73.5197 38.99C65.2297 36.1 57.1697 34.21 49.6897 33.32C46.9897 39.84 44.7997 47.28 43.2497 55.38C46.7897 52.94 50.4997 50.6 54.3797 48.37C60.7497 44.71 67.1697 41.58 73.5197 38.99ZM33.7197 62.5C35.2297 51.54 37.8697 41.46 41.3797 32.74C26.5297 32.46 14.9097 36.66 9.91966 45.26C4.70966 54.24 7.48966 66.68 16.1997 79.58C21.0897 73.73 26.9797 67.96 33.7197 62.5ZM12.7697 88.3C18.3697 95.9 25.7197 103.48 34.4997 110.54C36.0297 119.36 38.3097 127.53 41.1797 134.78C25.0597 136.11 12.3797 132.31 7.03966 123.12C1.85966 114.19 4.36966 101.48 12.7597 88.31L12.7697 88.3ZM17.5697 81.54C21.9097 75.99 27.2197 70.45 33.3797 65.17C32.6597 71.22 32.2697 77.53 32.2697 84C32.2697 88.91 32.4897 93.72 32.9097 98.4C26.7997 92.89 21.6197 87.18 17.5597 81.53L17.5697 81.54ZM135.19 81.55C131 87.32 125.65 93.15 119.32 98.76C119.76 93.97 120 89.03 120 84C120 77.41 119.6 70.99 118.85 64.84C125.22 70.21 130.72 75.87 135.19 81.55Z" fill="url(#paint0_linear_1_181)"/>
<path d="M204.34 45.97H192.83L190.47 52.2H185.2L196.07 23.88H201.47L212.54 52.2H206.78L204.34 45.97ZM202.74 41.74L198.54 30.99L194.46 41.74H202.73H202.74Z" fill="#1F2937"/>
<path d="M235.55 23.88H246.82C249.59 23.88 251.9 24.73 253.73 26.44C255.57 28.14 256.49 30.38 256.49 33.15C256.49 35.92 255.57 38.2 253.73 39.9C251.89 41.6 249.59 42.46 246.82 42.46H240.95V52.21H235.56V23.89L235.55 23.88ZM240.94 37.26H246.85C248 37.26 248.96 36.87 249.73 36.1C250.5 35.3 250.89 34.32 250.89 33.14C250.89 31.96 250.5 31 249.73 30.22C248.98 29.45 248.02 29.06 246.85 29.06H240.94V37.25V37.26Z" fill="#1F2937"/>
<path d="M293.67 45.97H282.16L279.8 52.2H274.53L285.4 23.88H290.79L301.86 52.2H296.1L293.66 45.97H293.67ZM292.07 41.74L287.87 30.99L283.79 41.74H292.06H292.07Z" fill="#1F2937"/>
<path d="M335.99 23C338.57 23 340.92 23.68 343.02 25.04C345.15 26.37 346.84 28.18 348.1 30.47L343.1 32.87C341.37 29.57 339 27.92 335.99 27.92C333.62 27.92 331.65 28.91 330.07 30.88C328.53 32.82 327.75 35.22 327.75 38.07C327.75 40.92 328.52 43.32 330.07 45.26C331.62 47.18 333.59 48.14 335.99 48.14C337.45 48.14 338.81 47.73 340.07 46.9C341.32 46.05 342.32 44.93 343.07 43.54L347.99 45.9C346.79 48.14 345.13 49.89 342.99 51.17C340.86 52.42 338.53 53.05 336 53.05C331.95 53.05 328.63 51.65 326.05 48.86C323.47 46.04 322.17 42.44 322.17 38.07C322.17 33.7 323.48 30.13 326.09 27.28C328.73 24.43 332.03 23.01 336 23.01L335.99 23Z" fill="#1F2937"/>
<path d="M393.49 52.2H388.09V40.61H377.1V52.2H371.71V23.88H377.1V35.43H388.09V23.88H393.49V52.2Z" fill="#1F2937"/>
<path d="M435.17 29.07H423.9V35.46H432.41V40.65H423.9V47H435.17V52.19H418.51V23.87H435.17V29.06V29.07Z" fill="#1F2937"/>
<path d="M185 76.1H207.25C218.63 76.1 227.58 79.3 234.1 85.69C240.69 92.02 243.98 100.14 243.98 110.04C243.98 119.94 240.69 128.1 234.1 134.49C227.51 140.88 218.53 144.08 207.15 144.08H184.99V76.1H185ZM199.96 90.49V129.7H206.67C209.55 129.7 212.2 129.38 214.63 128.74C217.12 128.1 219.43 127.08 221.54 125.67C223.71 124.26 225.41 122.25 226.62 119.63C227.83 116.95 228.44 113.75 228.44 110.04C228.44 106.33 227.83 103.17 226.62 100.55C225.4 97.93 223.71 95.92 221.54 94.51C219.43 93.1 217.16 92.08 214.73 91.44C212.3 90.8 209.61 90.48 206.67 90.48H199.96V90.49Z" fill="#1F2937"/>
<path d="M291.82 130.85H264.96L259.97 144.08H245.39L271.38 76.1H286.34L312.91 144.08H296.89L291.81 130.85H291.82ZM287.4 119.35L278.29 95.76L269.37 119.35H287.4Z" fill="#1F2937"/>
<path d="M362.7 90.49H342.94V144.09H327.98V90.49H308.51V76.11H362.7V90.49Z" fill="#1F2937"/>
<path d="M404.77 130.85H377.92L372.93 144.08H358.35L384.34 76.1H399.3L425.87 144.08H409.85L404.77 130.85ZM400.36 119.35L391.25 95.76L382.33 119.35H400.36Z" fill="#1F2937"/>
<path d="M474.73 90.49H448.45V102.95H468.4V117.33H448.45V144.08H433.49V76.1H474.73V90.48V90.49Z" fill="#1F2937"/>
<path d="M541.71 76.1V118.96C541.65 127.27 538.96 133.85 533.65 138.71C528.41 143.57 521.53 146 513.03 146C504.53 146 497.78 143.57 492.41 138.71C487.04 133.85 484.39 127.27 484.45 118.96V76.1H499.32V119.05C499.32 122.88 500.6 125.95 503.16 128.25C505.78 130.49 509.08 131.61 513.04 131.61C517 131.61 520.27 130.49 522.82 128.25C525.38 125.95 526.69 122.88 526.75 119.05V76.1H541.71Z" fill="#1F2937"/>
<path d="M578.69 73.99C585.72 73.99 591.96 75.59 597.39 78.78L590.77 91.24C585.98 89.19 581.43 88.17 577.15 88.17C570.95 88.17 567.85 90.25 567.85 94.4C567.85 96.45 569.03 98.17 571.4 99.58C573.83 100.92 577.28 102.39 581.76 103.99C586.3 105.52 589.72 106.96 592.02 108.3C598.22 111.88 601.32 117.25 601.32 124.41C601.32 131.12 598.86 136.4 593.93 140.23C589.01 144.07 582.87 145.98 575.52 145.98C571.36 145.98 567.05 145.21 562.57 143.68C558.09 142.15 554.61 140.39 552.12 138.41L560.18 126.43C567.02 130.46 573.22 132.21 578.79 131.7C580.96 131.51 582.76 130.74 584.16 129.4C585.63 128.06 586.24 126.43 585.98 124.51C585.72 122.72 584.22 121.25 581.47 120.1C578.72 118.89 575.14 117.48 570.73 115.88C566.38 114.28 562.83 112.4 560.08 110.22C555.03 106.13 552.5 101.05 552.5 94.98C552.5 91.98 553.01 89.26 554.03 86.83C555.05 84.4 556.4 82.42 558.06 80.89C559.79 79.29 561.8 77.98 564.1 76.96C566.4 75.87 568.77 75.11 571.2 74.66C573.63 74.21 576.12 73.99 578.68 73.99H578.69Z" fill="#1F2937"/>
<path d="M626.79 144.08H611.83V76.1H626.79V144.08Z" fill="#1F2937"/>
<path d="M647.04 84.16C653.88 77.38 662.48 74 672.84 74C683.2 74 691.73 77.39 698.45 84.16C705.23 90.87 708.62 99.4 708.62 109.76C708.62 120.12 705.33 128.68 698.74 135.45C692.15 142.16 683.52 145.68 672.84 146C662.48 146 653.88 142.58 647.04 135.74C640.26 128.84 636.87 120.21 636.87 109.85C636.87 99.49 640.26 90.93 647.04 84.15V84.16ZM672.84 87.61C666.64 87.61 661.68 89.69 657.97 93.84C654.26 97.99 652.41 103.3 652.41 109.76C652.41 116.22 654.26 121.62 657.97 125.96C661.74 130.24 666.7 132.38 672.84 132.38C678.98 132.38 683.96 130.24 687.61 125.96C691.25 121.68 693.08 116.31 693.08 109.85C693.08 103.39 691.26 98.12 687.61 94.03C684.03 89.88 679.11 87.73 672.84 87.61Z" fill="#1F2937"/>
<path d="M775 144.08H759.65L732.7 101.99V144.08H718.7V76.1H732.99L761 118.57V76.1H775V144.08Z" fill="#1F2937"/>
<path d="M788.01 78.18H784.62V87.44H782.46V78.18H779.13V76.1H788.01V78.18ZM800.56 87.45H798.48V80.17L795.5 85.79H794.12L791.14 80.17L791.12 87.45H789.1V76.11H791.13L794.87 83.04L798.45 76.11H800.51L800.53 87.45H800.56Z" fill="#1F2937"/>
</g>
<defs>
<linearGradient id="paint0_linear_1_181" x1="17.0897" y1="117.74" x2="162.73" y2="36.78" gradientUnits="userSpaceOnUse">
<stop stop-color="#EF4137"/>
<stop offset="1" stop-color="#FBB042"/>
</linearGradient>
<clipPath id="clip0_1_181">
<rect width="800.56" height="168" fill="white"/>
</clipPath>
</defs>
</svg>
