<svg width="153" height="168" viewBox="0 0 153 168" fill="none" xmlns="http://www.w3.org/2000/svg">
<path fill-rule="evenodd" clip-rule="evenodd" d="M76.134 168C88.4689 168 99.6146 158.249 107.584 142.553C127.231 144.598 143.098 139.996 149.76 128.509C156.288 117.253 152.646 101.683 141.581 86.0881C152.361 70.6665 155.851 55.3164 149.395 44.1852C143.015 33.1851 128.195 28.4991 109.697 29.9172C101.651 11.6232 89.6012 0 76.134 0C62.6024 0 50.5019 11.7346 42.4559 30.18C24.3535 28.9678 9.88686 33.6772 3.6047 44.5089C-2.8057 55.5617 0.590737 70.774 11.1922 86.0857C0.30461 101.573 -3.24333 117.007 3.24001 128.185C9.80558 139.506 25.3108 144.139 44.5631 142.314C52.5405 158.15 63.7366 168 76.134 168ZM52.723 141.192C59.5131 154.212 68.6244 162.178 78.6404 162.178C88.3909 162.178 97.6445 154.628 104.759 142.216C95.7498 141.011 86.0249 138.458 76.0813 134.579C68.0559 137.653 60.1825 139.861 52.723 141.192ZM65.066 129.772C59.6365 131.524 54.3493 132.843 49.3044 133.722C47.3604 128.877 45.6948 123.542 44.3578 117.82C47.6743 120.075 51.143 122.249 54.7512 124.322C58.1804 126.293 61.6254 128.11 65.066 129.772ZM76.1153 125.681C82.0554 123.201 88.0811 120.236 94.0712 116.793C102.753 111.803 110.601 106.248 117.406 100.431C118.007 95.1332 118.325 89.6363 118.325 84C118.325 76.7877 117.804 69.8034 116.837 63.1724C111.111 58.5306 104.726 54.1259 97.7783 50.1327C90.5496 45.9781 83.2382 42.5717 76.0688 39.9083C69.1761 42.5221 62.1608 45.8209 55.2217 49.809C50.8567 52.3176 46.714 54.9887 42.8173 57.7789C41.3987 65.9754 40.6264 74.8022 40.6264 84C40.6264 91.6514 41.1608 99.046 42.1572 106.035C47.3013 109.933 52.9148 113.66 58.9288 117.117C64.6605 120.411 70.4247 123.268 76.1153 125.681ZM87.1306 129.834C90.8382 128.069 94.5526 126.123 98.2488 123.999C104.42 120.452 110.183 116.612 115.475 112.577C113.788 120.729 111.414 128.213 108.516 134.761C101.819 133.947 94.6043 132.298 87.1306 129.834ZM117.71 110.839C116.16 119.645 113.869 127.798 110.979 135.025C127.491 136.554 140.523 132.79 145.949 123.434C151.173 114.426 148.569 101.574 140.004 88.2746C134.26 96.0014 126.717 103.697 117.71 110.839ZM136.558 79.6112C145.456 66.5866 148.333 53.995 143.077 44.9322C137.99 36.1605 126.021 31.9659 110.76 32.4296C114.303 41.1419 116.969 51.2264 118.504 62.197C125.46 67.7548 131.53 73.6409 136.558 79.6112ZM108.207 32.5487C111.854 40.6018 114.7 50.1134 116.432 60.5713C110.979 56.37 105.016 52.3749 98.6135 48.6953C91.9605 44.8716 85.2484 41.6273 78.6231 38.9688C89.0583 35.2503 99.1528 33.1155 108.207 32.5487ZM107.079 30.1561C97.4373 31.1742 86.8906 33.7897 76.078 37.9747C67.3015 34.6398 58.7118 32.342 50.652 31.0966C57.5997 15.5588 67.5671 5.82178 78.6404 5.82178C89.4885 5.82178 99.7214 15.1669 107.079 30.1561ZM73.5221 38.9912C65.2343 36.1013 57.1742 34.2138 49.6945 33.3208C46.9942 39.8377 44.805 47.278 43.2545 55.3791C46.7937 52.9437 50.5095 50.5998 54.3865 48.3716C60.7535 44.7123 67.1747 41.5836 73.5221 38.9912ZM33.7221 62.4957C35.2332 51.5364 37.8718 41.4543 41.3859 32.7321C26.5331 32.4484 14.915 36.6486 9.92297 45.2558C4.71482 54.2357 7.49152 66.68 16.1993 79.577C21.0882 73.7301 26.9781 67.96 33.7221 62.4957ZM12.7737 88.2981C18.3786 95.9001 25.7286 103.478 34.5053 110.536C36.0375 119.356 38.3126 127.526 41.1886 134.774C25.0714 136.101 12.386 132.308 7.05132 123.11C1.87209 114.18 4.38588 101.474 12.7737 88.2981ZM17.5655 81.5365C21.902 75.9826 27.2176 70.4453 33.3781 65.1689C32.6541 71.2227 32.2716 77.5258 32.2716 84C32.2716 88.9107 32.4917 93.723 32.9139 98.4027C26.8006 92.8905 21.6275 87.1849 17.5655 81.5365ZM135.191 81.5497C130.996 87.3221 125.646 93.1492 119.321 98.7635C119.765 93.9705 119.996 89.037 119.996 84C119.996 77.4071 119.6 70.9917 118.85 64.8363C125.223 70.211 130.718 75.8692 135.191 81.5497Z" fill="url(#paint0_linear_1_164)"/>
<path d="M139.008 3.736H135.616V13H133.456V3.736H130.128V1.656H139.008V3.736ZM151.557 13H149.477V5.72L146.501 11.336H145.125L142.149 5.72L142.133 13H140.117V1.656H142.149L145.893 8.584L149.477 1.656H151.541L151.557 13Z" fill="#1F2937"/>
<defs>
<linearGradient id="paint0_linear_1_164" x1="30.4301" y1="141.748" x2="176.07" y2="60.7867" gradientUnits="userSpaceOnUse">
<stop stop-color="#EF4136"/>
<stop offset="1" stop-color="#FBB040"/>
</linearGradient>
</defs>
</svg>
